<?xml version="1.0" encoding="UTF-8"?>
<svg xmlns="http://www.w3.org/2000/svg" version="1.1" xmlns:xlink="http://www.w3.org/1999/xlink" viewBox="0 0 1920 1440">
  <defs>
    <style>
      .cls-1 {
        fill: #011126;
      }

      .cls-2 {
        fill: #46467f;
      }

      .cls-3 {
        fill: #fff;
      }

      .cls-4 {
        fill: #8d8bc2;
      }

      .cls-5 {
        fill: #b8bccf;
      }

      .cls-6 {
        stroke-linecap: round;
      }

      .cls-6, .cls-7, .cls-8 {
        fill: none;
        stroke: #fff;
        stroke-miterlimit: 10;
      }

      .cls-9 {
        isolation: isolate;
      }

      .cls-7 {
        stroke-width: 4px;
      }

      .cls-10 {
        fill: #6363ad;
      }

      .cls-8 {
        stroke-width: 2px;
      }

      .cls-11 {
        fill: #41464f;
        opacity: .5;
      }

      .cls-12 {
        fill: #403a6d;
      }

      .cls-13 {
        fill: url(#linear-gradient);
      }

      .cls-14 {
        fill: #3b3362;
      }
    </style>
    <linearGradient id="linear-gradient" x1="1511.8" y1="1675.7" x2="408.2" y2="-235.7" gradientUnits="userSpaceOnUse">
      <stop offset="0" stop-color="#8990b0"/>
      <stop offset="1" stop-color="#babacc"/>
    </linearGradient>
  </defs>
  <!-- Generator: Adobe Illustrator 28.7.4, SVG Export Plug-In . SVG Version: 1.2.0 Build 166)  -->
  <g>
    <g id="Layer_4">
      <rect class="cls-13" y="0" width="1920" height="1440"/>
      <g>
        <g>
          <path class="cls-1" d="M682.8,455.9v3.1h-13.2c-.4,8.4-1.2,13.8-13.1,18.1-.3-1.3-1-2.6-1.9-3.5,9.9-2.6,11.1-6.9,11.3-14.5h-14.4v-3.1h31.2ZM676.4,447.5v3.3h-19.8v-3.3h19.8ZM678.9,446.1c1.2,1.2,2.4,2.4,3.3,3.6l-1.7,1.5c-1-1.2-2.2-2.4-3.3-3.5l1.7-1.6ZM681.7,443.5c1.2,1,2.3,2.3,3.4,3.6l-1.8,1.6c-1-1.3-2.2-2.4-3.3-3.6l1.7-1.6Z"/>
          <path class="cls-1" d="M717.4,458.7v3.6h-28.5v-3.6h28.5Z"/>
          <path class="cls-1" d="M747.8,450.5h.3c0-.1,1.9,1.8,1.9,1.8-.5.9-2.3,4.9-2.7,5.7-1.6,3.1-4,7.1-7.8,10.7-.7.6-5.5,5-13.4,7.9-.4-1.1-1.2-2.4-2.2-3.2,4.6-1.5,9.3-3.3,14.4-8.3-3.4-2.9-5-4-6.5-5l2-2.4c2.5,1.5,4.8,3.1,6.8,4.8,2.6-3.5,3.3-5.1,5-8.9h-10c-3,4.1-5,6.9-11.2,10.8-.5-1.2-1.2-2.2-2.3-3,2.8-1.6,9.3-5.1,13.2-15.7l3.7,1.3c-.6,1.3-1.2,2.4-1.8,3.6h10.5Z"/>
          <path class="cls-1" d="M782.4,472.2c-9-10.7-10.2-12-15.2-17.4-.1-.1-.6-.6-.6-.6-.3,0-.4,0-.7.4-.3.3-1.2,1.4-2.2,2.7-1.7,2.1-3.7,4.6-6.7,8.2l-2.8-2.6c1.5-1.7,8-9.2,9.4-10.7.5-.6,1.5-1.7,3-1.7s1.8.8,3,2c3.1,3.1,11.4,12.2,15.7,17.1l-2.9,2.5ZM775.6,449.6c1.3,1.2,2.7,2.6,3.9,3.8l-1.9,1.7c-1.1-1.3-2.3-2.7-3.6-4l1.7-1.5ZM781.1,452.1c-1.2-1.4-2.5-2.8-3.8-4l1.9-1.6c1.3,1.2,2.6,2.6,3.8,4l-1.9,1.7Z"/>
          <path class="cls-1" d="M818.7,458.7v3.6h-28.5v-3.6h28.5Z"/>
          <path class="cls-1" d="M846.5,448.8l2.3,2.5c-.5.8-2.3,4.1-2.7,4.8-1,1.8-1.8,3-3.4,5.1.9.9,4.9,4.9,5.7,5.7,1.9,2.1,3,3.5,5.2,6.2l-3.2,2.4c-2.8-4-5.1-6.8-9.8-11.7-5.5,5.8-8.4,8.2-14.9,11.5-.5-1.3-1.4-2.4-2.5-3.3,9.3-3.9,15-8.7,21.1-19.8h-17.4v-3.3h19.2l.5-.2Z"/>
          <path class="cls-1" d="M864.8,448c-1.5,5.4-2.4,9.9-2.4,15.9s.2,6,1.2,11.2l-3.5.8c-.7-4.4-1-8.7-1-11.4,0-7.4,1.2-13,2.2-17.7l3.6,1.3ZM881.9,446.2c-.1,2.8-.1,5.3-.1,6.5,1.5-.3,3.5-.8,5.4-1.4v3.3c-1.6.5-3.9.9-5.4,1.2,0,3.7,0,7.5.3,11.1,3.3,1.6,4.8,2.3,7.1,4.1l-2.3,2.8c-2.2-1.9-4.3-3.3-4.8-3.5,0,2.2-.3,5.2-6.3,5.2s-7.6-2.6-7.6-5.5,1.7-4.4,7.1-4.4,1.8,0,3.5.3c0-1.5-.3-8.3-.3-9.7-2,.3-3.5.3-5.5.3s-3.3,0-4.7-.2v-3.3c2.3.3,4.7.4,6.7.4s2.7,0,3.6-.1c0-1.5,0-4.2-.1-6.9h3.6ZM875.2,472.6c2.8,0,3.6-1,3.6-3.9-1.8-.4-3-.5-3.9-.5-1.4,0-4,.3-4,2.2s.6,2.3,4.2,2.3Z"/>
          <path class="cls-1" d="M901,445.6v22c3.6-1.1,7.6-2.4,10.8-3.6v3.2c-5.7,2.2-11.4,4.1-17.3,5.9l-1.2-3.4c1.5-.3,3.1-.7,4.4-1.2v-22.9h3.2ZM921.6,445.5c-.2,10.8-.3,12-.5,14.1-.3,3-.7,4.6-1.7,7,3.6,3.7,4.6,5,6.4,7.3l-2.7,2.3c-2.7-3.6-4-5-5.5-6.7-1.5,1.9-2.7,2.9-5.9,4.6-1.1.6-2.7,1.4-5.8,2.5-.2-1.3-1-2.3-1.9-3.2,7.2-1.7,10.8-4.2,12.5-8.3,1.4-3.2,1.6-6.9,1.5-19.6h3.5ZM907.3,446.5c1.8,1.6,3.8,3.8,5.2,5.7l-2.7,2.1c-1.4-1.9-3.3-4.2-5-5.8l2.4-2Z"/>
          <path class="cls-1" d="M962.2,446.6v3h-14.3v4.8c4.2,2.7,6.7,4.4,10.3,7.1l-2.3,3c-2.4-2.1-3.8-3.2-8-6.3v18.2h-3.5v-26.7h-13.4v-3h31.2Z"/>
          <path class="cls-1" d="M982.9,472.5c8.5-1.4,12-5.6,12-11.6s-3.6-9.6-9.9-10.1c-1.9,11.7-5.9,18.5-8,20.6-1,1.1-2.1,1.3-2.8,1.3-3.5,0-6-4.9-6-10,0-8.6,6.8-14.6,16.3-14.6s8.3,1.5,10.7,3.9c2.3,2.3,3.3,5.6,3.3,8.8,0,10.3-8.6,13.5-14.1,14.8-.4-1.3-.9-2.3-1.5-3.2ZM971.5,462.6c0,3.6,1.4,6.4,3,6.4s2.3-2.6,3-3.8c1.9-4.1,3.7-9.6,4.2-14.2-5.5,1.1-10.2,5-10.2,11.6Z"/>
          <path class="cls-1" d="M1027.5,449l1,.8c.8-1.6,1.4-3.3,2-4.9l2.6,1.4c-1.2,2.1-1.4,2.4-2.8,5l1.2,1c.5-.9,1-1.9,1.8-3.3l2.4,1.6c-1.7,2.4-2.5,3.6-4.7,7h2.7c0-.1-.9-1.8-.9-1.8l2.1-.9c.9,1.5,1.7,3.3,2.3,4.7l-2.4.8-.4-.9c-2.6.3-5.4.6-6.7.8l-.4-2.6h.9c.6-1,1.3-2.1,1.8-2.9-1.2-1.1-2.3-2-3.5-3,0,5.5.2,7,.8,10.7h3.3l-.7-1.5,2.5-.9c.5.7.9,1.6,1.3,2.4h2.6v2.8h-8.3c.4,1.3.8,2.6,1.5,4.1,1.2-1,2.2-2.1,3.2-3.2l2.3,2.2c-1.2,1.2-2.5,2.6-3.7,3.6.5.7,1.8,1.7,2.2,1.7s.3,0,.9-2.4c.9.6,2.1,1,3,1.3-.5,1.8-1.3,4.7-3.2,4.7s-2.1,0-5.2-3.4c-2.4,1.6-4,2.6-7.2,3.7-.4-1.1-.8-1.8-1.7-2.7,1.4-.4,3.9-1.2,7.1-3.6-1.3-2.7-1.8-4.3-2.1-6h-4.6c-.2.7-.4,1.4-.6,2.2,1.9.9,3.4,1.7,4.5,2.4l-1.6,2.8c-1.2-.9-2.5-1.7-3.9-2.4-.9,2.3-2.1,4.5-4.1,6.8-.6-.9-1.2-1.5-2.3-2.2,2.9-3.1,4.2-7.1,5-9.6h-3.3v-2.8h10.4c-.1-.6-.3-1.7-.4-2.4l-2.1.9-.5-1c-1,.1-5.5.8-6.4.9l-.6-2.7h1.3c.6-.9,1.2-1.9,1.8-3.1-.9-.8-2.3-1.9-3.4-2.7v2.7h-3v3.3c.8.9,2,2.1,3.1,2.9-.6.9-1,1.8-1.5,3-.5-.6-1-1.1-1.6-1.9v14.9h-3.1v-13.8c-.9,2.1-1.9,4-2.8,5.4-.2-.9-.8-2.1-1.5-3.5,1.7-2.8,3.1-5.9,4.4-10.4h-3.5v-3h3.4v-7h3.1v7h2.5l-.6-.4,1.7-2.1,1.2.8c.8-1.5,1.7-3.3,2.6-5.3l2.5,1.5c-.5,1-1.9,3.4-3,5.3l1,.9c.5-.8,1-1.7,1.8-2.8l2.3,1.5c-1.8,2.7-3.2,4.6-4.7,6.8h2.5c0-.1-.9-1.8-.9-1.8l2-1c.8,1.2,1.4,2.3,2,3.6-.4-4.9-.5-8-.5-14.1h3.1c0,1.1,0,1.6,0,5.6l1.1-1.2Z"/>
          <path class="cls-1" d="M1040.9,452.3h3.2c1.1-2.9,1.9-5.2,2.8-8.2l3.4,1.2-2.9,6.8c1.5-.1,4.2-.4,5.6-.6-.6-.9-1.3-1.8-2.1-2.7l2.5-1.7c1.9,2.4,3.6,4.8,4.6,6.6l-2.8,1.8c-.3-.6-.6-1.3-.9-1.7-5.3.8-8.1,1.3-13,1.8l-.6-3.2ZM1055.7,456.5v16.7c0,2.4-.6,3.2-5,3.9-.3-1.4-.5-2.4-1.2-3.6h2.6c.4,0,.6-.2.6-.5v-3.8h-6.6v7.9h-3v-20.5h12.6ZM1046.1,459.2v2.3h6.6v-2.3h-6.6ZM1046.1,464v2.4h6.6v-2.4h-6.6ZM1062.2,444.7v4.6c3.2-.7,5-1.2,8.2-2.4l1.5,2.8c-3,1-4.3,1.3-9.8,2.4v3.9c0,.6.2.9,1.6.9s4.5,0,5,0c1,0,1.3-.2,1.7-3.5,1,.7,1.9,1.1,3.3,1.4-.9,4.8-2.5,4.8-5.8,4.8h-3.5c-3.9,0-5.7,0-5.7-2.7v-12h3.2ZM1062.2,460.7v4.7c4-1,5.9-1.7,8.3-2.8l1.5,2.7c-3.1,1.3-4.6,1.7-9.8,3.1v3.9c0,.9.2,1,1.5,1h3.3c1.5,0,2.4,0,2.8-.3.6-.4.8-1.9,1-3,1,.6,2.1.9,3.3,1.2-1.2,4.7-2.1,5-5.6,5h-4c-3.9,0-5.4-.3-5.4-3.5v-12h3.2Z"/>
          <path class="cls-1" d="M1093,446.5c-.6,1.7-1.4,4.1-1.9,5.6,1-.1,1.7-.1,2.3-.1,3.8,0,5.7,2.4,5.7,6.8s-2.4,16.9-7.2,16.9-4.1-2.4-5.5-4.3c1.1-.9,1.8-1.8,2.2-2.4,1.2,2.1,2.1,2.9,2.7,2.9,1,0,1.6-1.5,1.9-2.1.9-1.9,2.7-6.7,2.7-11.1s-.7-3.9-2.9-3.9-1.7.1-3,.3c-2.5,7.4-5.9,14.7-8.8,20l-3.2-1.7c1.6-2.5,4.8-7.6,8.4-17.8-3.2.6-4.1.9-5.9,1.4l-.4-3.6c1.8-.2,3.5-.4,7.3-1,.7-2.3,1.3-4.6,1.7-7.1l3.8,1ZM1101.5,450.6c4.3,4.4,5.7,6.9,6.6,9,1,2.3,1.2,3.6,1.2,4.5,0,2.9-1.9,3.1-4.2,3.1s-1.3,0-1.9-.1c0-2.2,0-2.5-.1-3.2,1,.1,1.5.2,1.9.2s.8-.1.8-.8-.6-2.7-1.2-4c-.6-1.3-1.6-3.1-4.9-6.7l2-1.9ZM1103.9,447.9c1.5,1.2,3.1,2.4,4.3,3.6l-1.8,1.9c-1.3-1.3-2.7-2.6-4.1-3.7l1.6-1.8ZM1107.1,444.4c1.4,1,3.1,2.4,4.3,3.5l-1.8,2c-1.2-1.2-2.6-2.6-4.1-3.7l1.6-1.8Z"/>
          <path class="cls-1" d="M1134.1,454.6l3.1,1.2-.6,1.2c1.9.5,7.8,2.2,7.8,9s-1.2,5.2-3.5,6.9c-3,2.4-8.2,3.2-9.2,3.4-.1-.8-.5-1.9-1.2-3.1,8.9-1,10.5-4.8,10.5-7.5s-2-5.4-5.7-6.3c-2.2,3.7-3.7,5.7-7.2,9.8.3,1.3.5,2.3.8,3.1l-3.2,1.1-.3-1.6c-1.3,1.1-3.7,3.1-6.2,3.1s-3.7-.8-3.7-4.8,1.8-6.8,4.4-9.1c.9-.8,2.1-1.7,4.4-2.8,0-1.6.1-3.6.3-4.9-1.5,0-2.4,0-3.2,0s-1.7,0-3.5-.1v-3.2c2.2.3,2.9.3,7.1.3.2-1.5.4-3.8.6-5.5l3.7.6c-.4,1.4-.8,3.2-1,4.6,2.2-.3,6-.8,10.2-2v3.1c-3.6,1-7.2,1.5-10.7,1.8-.2,1.1-.3,2.7-.4,4,1.4-.4,3.7-.7,5.8-.7l.9-1.8ZM1124.2,461.4c-4.5,3-5.8,5.9-5.8,8.3s.5,2.3,1.3,2.3,3-1.2,5.1-3.4c-.2-1.5-.4-2.9-.6-7.2ZM1127.5,465.5c2.2-3,3.8-5.6,4.2-6.4-1.2,0-3.2.4-4.5.8,0,1.8,0,4,.3,5.7Z"/>
          <path class="cls-1" d="M1156.7,447.4c-.8,2.7-1.4,4.8-1.8,7.8-.4,2.6-.4,4-.4,5,0,2.2.1,2.4.5,2.4s1-1.7,1.3-3c.8.7,1.7,1.1,2.6,1.4-.9,3.6-2,7-4.5,7s-3.2-6.1-3.2-8.9,0-2.4.3-4.3c.2-1.7.6-4.8,1.5-8.4l3.7.9ZM1170.4,446.1c.3,4.4.4,6.9.4,9.9,0,10.1-1.6,13.6-5.1,16.4-3.3,2.6-7.4,3.5-8.8,3.9-.3-1.2-.7-2.4-1.3-3.5,10.4-1.7,11.7-6.6,11.7-15.4s-.1-6-.6-10.8l3.8-.4Z"/>
          <path class="cls-1" d="M1194.2,445.4c-.2,1.2-.3,1.8-.4,2.5,0,.8-.1,1.6-.2,2.8,3.8-.3,6-.5,10.8-1.5v3.5c-3.7.6-4.6.7-10.8,1.3,0,1.3,0,3.3,0,4.6,3.1-.2,7.5-.8,9.3-1.1v3.2c-2,.2-3.1.3-4.2.4-1.3.1-2.6.2-5.1.3,0,1.8,0,3.9.1,5.2,3.8.9,7.8,2.6,12.1,5.5l-2.3,2.8c-3.3-2.7-6.2-4-9.8-5.3,0,2.9,0,4-1.1,5.1-1.8,1.6-4.9,1.6-5.7,1.6-5.4,0-7.9-2.6-7.9-5.2s3.7-5.2,8.4-5.2,1.8,0,3.1.2c0-1.2,0-3,0-4.5-2.7,0-6.9,0-8.3-.8-1.6-.9-2.1-2.9-2.2-4.5l3.3-.2c.1,1.7.4,2.2,1.5,2.6.5.1,3.7.1,5.6.1v-4.8c-5.7,0-8.8,0-12.4-.8l.5-3.2c1.9.5,4.9,1.2,11.9,1,0-3.3,0-3.7-.1-5.7h4.1ZM1190.4,468.7c-.6,0-1.7-.2-3.5-.2-3.7,0-4.6,1.7-4.6,2.6,0,1.9,3.2,2.5,4.5,2.5,3.1,0,3.6-1.5,3.6-3.4v-1.5Z"/>
          <path class="cls-1" d="M1228.8,444.5c0,1.2-.2,4.5-.2,6.1,3.5,0,9.6-.4,11.9-.6v3.4c-.9,0-8.5,0-12,.1,0,1.6-.1,8.5-.1,9.8.1,1.4.2,2.3.2,3,0,6.1-5,8.8-11.1,10.7-.3-1.1-.9-2.2-1.7-3.1,2.3-.4,9.6-1.7,10-7.7-1,1-2.1,2-3.8,2-2.6,0-5-2.6-5-5.8s2.2-6.4,5-6.4,2.4.6,3.5,1.9c0-1.3,0-3.2,0-4.2-2,.1-12.6.8-15.5,1v-3.3c3.1-.1,4.9-.2,6.7-.2l8.7-.4-.2-6.3h3.7ZM1222.2,458.5c-1.5,0-2.6,1.9-2.6,3.5,0,2.8,1.7,3.7,2.6,3.7,1.7,0,2.8-2,2.8-3.5s-.8-3.6-2.9-3.6Z"/>
          <path class="cls-1" d="M1249.5,476.7c-3.1,0-4.8-2.3-4.8-4.7s2-4.7,4.8-4.8c2.2,0,4.6,1.8,4.6,4.8s-2.4,4.7-4.6,4.7ZM1249.4,474.5c1.6,0,2.5-1.3,2.5-2.5,0-1.8-1.6-2.5-2.4-2.5-2.2,0-2.6,1.7-2.6,2.5,0,1.5,1.2,2.5,2.5,2.5Z"/>
        </g>
        <g>
          <path class="cls-3" d="M737.6,375.9v9.6h-20.3c-.4,17.4-7,24.4-23.6,29.5-.8-3.4-2.1-6.6-5.6-9.8,17.9-2.2,18.2-13.1,18.4-19.6h-21.3v-9.6h52.5ZM731.6,371.5c-1.1-1.6-2.4-3.1-3.7-4.5v4.8h-34.6v-9.7h33.7l1.7-1.5c2.5,2.1,4.7,4.6,6.8,7.3l-4,3.6ZM733.7,356.4c2.5,1.9,4.9,4.5,7.2,7l-4.2,3.7c-2.2-2.5-4.3-4.9-7-7.3l4-3.4Z"/>
          <path class="cls-3" d="M795.7,381.4v9.4h-47.3v-9.4h47.3Z"/>
          <path class="cls-3" d="M837.3,362.8c-.7,1.3-1.4,2.7-2.2,4.1h13.3l.8-.4,6.4,7.1c-.7,1-1.1,2-1.4,2.9-8.6,23.1-22.3,32.6-40.7,37.1-1-3.3-2.2-6-5.2-9.2,6.4-1.6,14.3-3.6,21.8-9.6-2.3-2.2-2.3-2.2-8.6-7.3l5.9-6.2c4.1,2.3,4.6,2.7,9.4,6.3,3-3.7,4.7-7.4,6.2-11.3h-13.6c-7.8,10.5-14.6,14.5-18.5,16.8-1.3-2.7-2.9-5.9-5.9-8.4,11.6-6.1,17.5-15.7,22.3-25l10,3Z"/>
          <path class="cls-3" d="M864.8,389c5.3-5.4,8-8.6,10.3-11.2,8-9.5,8.6-10.1,12.1-10.1s4.9,1.9,7.9,5.4c5.6,6.4,19.7,21.6,24.6,26.6l-8.1,7.6c-5-5.6-7.3-8.3-9.2-10.7-1.8-2.2-10.5-13-12.5-15.4-1.5-1.9-2-2.3-3-2.3s-1,.3-1.7,1.2c-.9,1.2-1.9,2.5-3.2,4.3-2.3,3-5.7,7.4-9.4,11.9l-7.7-7.2ZM902,367.5c2.4,1.9,4.8,4.1,7.1,6.7l-3.8,3.8c-2.2-2.3-4.5-4.6-7-6.8l3.7-3.6ZM907.2,362.4c2.5,1.9,4.9,4,7.1,6.4l-4,4.1c-2.2-2.3-4.6-4.6-7.1-6.7l4-3.8Z"/>
          <path class="cls-3" d="M976,381.4v9.4h-47.3v-9.4h47.3Z"/>
          <path class="cls-3" d="M1024.4,364.2l6.4,6.9c-.8,1.1-1.3,2.1-1.7,2.9-3.8,7.5-6,10.7-7.7,13.2,10,8.1,14.4,14.6,17.3,18.9l-8.4,6.5c-2.8-4.2-4.7-6.8-7.1-9.7-1.6-2.2-3.2-4.1-7.9-8.3-9.7,9.9-16.6,13.6-24.3,16.8-.9-2.6-2.2-5.8-6-8.8,18-6.9,26.3-17.6,31.9-28.1h-24.2v-9.8h30.5l1.1-.5Z"/>
          <path class="cls-3" d="M1073.2,393.7c-1.3,2.9-5.9,14.2-13.7,14.2s-11.3-9.6-11.3-17.5c0-12.2,8.3-26.3,28.1-26.3s24.5,20.9,24.5,22.3c0,5-1,14-11.1,20.4-2.8,1.8-6.4,3.5-13.9,5.1-.8-3.3-2.2-6.8-4.1-9.5,11-1,14.9-5.5,16.3-7.4,1.8-2.6,2.7-5.6,2.7-8.8s-.4-5.2-1.7-7.6c-1.3-2.3-4.1-5.2-9.9-6.2-1.4,7.8-2.7,13.3-6.1,21.2ZM1059.2,381.5c-1.3,2.6-1.9,5.5-1.9,8.4s.8,7.6,3.4,7.6,5.5-5.3,9.4-24.5c-4.8,1.6-8.5,3.7-10.9,8.5Z"/>
          <path class="cls-3" d="M1130,365.7c1.2-2.4,2.4-4.9,3.5-7.4l6,3.3c-1.6,2.7-3.1,5.4-4.6,8.1l1.2,1.1c.9-1.6,1.8-3,2.8-4.6l3.1,2.2c0-2.4,0-5.4,0-8.8h8.6c0,1.7-.1,3.8-.1,5.5l.7.7c1.2-2.3,2.3-4.6,3.4-7.2l6.2,2.8c-1.2,2.4-1.8,3.4-2.5,4.4-.5.8-1,1.6-2.3,3.8l1.3,1.1c1.3-2,2.4-4,3.7-6.1l5.1,3c-1.6,2.8-4.6,7.3-5.6,8.7l2.9-1c1.3,2.5,2.9,5.8,4,8.9l-5.2,2-.4-.9h-1.9l1,2.2h5.1v7.2h-6.4l4.6,3.3c-1.9,2.2-4.3,4.3-6.7,6.2,1,1,1.4,1.5,1.9,1.5s.6-.4,1.7-3.8c2,1.4,4,2.6,6.3,3.5-1.2,5.7-3.2,7.8-4.3,8.5-1,.6-2.1.6-2.5.6-1.1,0-4.6-.5-9.5-5.6-5.8,3.2-8,4-10.4,4.7-1.1-2.3-2.6-4.9-4.4-7,1.2-.2,2.2-.5,3.3-1-1.1-.7-2.3-1.1-3.6-1.7-2.8,5.5-3.5,6.8-5.9,9.8-2-2-3.5-3.7-5.6-5v4.2h-8.1v-17.8c-1,2.1-1.7,3.7-3,5.6-.8-3.2-2.1-6.3-3.7-9.1,3.1-4.7,4.8-9.1,6.5-14.2h-4v-7.7h4.1v-10.2h8.1v10.2h1.6l3.1-4.7,1.1.5ZM1127.4,377.5h-3.2v4.1c.9,1,2,1.9,2.9,2.6v-3.3h2.1c1-1.3,2.1-2.9,3.1-4.6-1.6-1.3-3.2-2.7-4.9-4.1v5.2ZM1125.9,392.5l-1.7-1.3v16.5c1.8-2.1,4.7-5.9,6.1-12.9h-2.8v-5.2l-1.7,2.9ZM1128.5,387.6h14.6v-1.7c0,0-2.6,1.1-2.6,1.1l-.5-1.3c-3.5.6-7.4,1-10.9,1.1l-.5.8ZM1137.4,379.2l-1.1,1.7,1.9-.2-.8-1.6ZM1142.3,378.8c-.1-2.3-.1-4.3-.2-6.5-1.5,2-2.8,3.8-4.3,6.1l3.5-1.6,1,2ZM1138.2,396.9c2.1,1.1,4.7,2.3,7,3.4l-2.2,4.3c1.4-.8,2.6-1.4,3.7-2.2-.7-1.6-2-4.9-2.5-7.6h-5.5l-.5,2ZM1150.7,381c1.1-1.5,2-2.8,2.9-4.7-1.1-.9-2.2-1.9-3.2-2.8,0,2.8,0,5.3.3,7.5ZM1151,385.9v1.7h2.6l-.7-1.7h-1.9ZM1152.6,394.8c.2,1.1.4,2.2.9,2.9,1.1-.8,2.2-1.7,3.1-2.9h-4ZM1159,378.7l-1,1.9,1.8-.2-.8-1.7Z"/>
          <path class="cls-3" d="M1192.2,360.4c-.2.5-3.5,7.9-4.3,9.8,1.7-.2,3.5-.2,5.2-.4-.7-1.1-1.4-2.2-2.5-3.3l6.5-3.8c2.5,3,4.4,5.6,6.8,9.8v-13.2h8.1v6.7c2.6-.7,7.6-2,11.8-3.7l4.3,6.6c-5.6,2-10.9,3.4-16.1,4.4v2.7c0,2.1.2,2.4,1.5,2.4s7.6,0,8.2-.1c.7,0,1-.1,2.3-5.6,2.5,1.3,5,2.7,7.8,3.4-2,8.9-6.7,8.9-9.9,8.9h-8.1c-4.1,0-5.9,0-8.2-2-1.7-1.5-1.7-3.2-1.7-5.8v-2.2l-5.6,3-1.1-1.9c-6.3.8-14.5,1.6-21.5,2l-1.2-7.6h4.9c.5-1.7,1.4-4.2,4.4-12.5l8.2,2.4ZM1201.1,378.6v27.6c0,5.8-1.6,7.2-9.9,7.5-.4-2.5-1-4.9-1.9-7.4h2.6c1,0,1.4,0,1.4-.9v-3.5h-8v11.4h-7.6v-34.7h23.3ZM1185.3,386.9h8v-2h-8v2ZM1185.3,395.2h8v-2.2h-8v2.2ZM1211.9,386.2v6.5c2.7-.7,8.3-2.5,12.7-4.5l4.9,6.7c-5.8,2.2-10.3,3.7-17.6,5.6v3.2c0,2,.6,2.1,3.4,2.1s6.4,0,6.8-.4c.5-.7,1.1-3.6,1.3-4.9,2.9,1.4,5.5,2.5,8.6,3.1-.9,3.1-2.1,7.2-6.1,8.7-1.6.6-2.1.7-11.5.7s-5.3,0-7.5-1.3c-1.1-.7-3.1-2.3-3.1-5.6v-19.9h8Z"/>
        </g>
        <g>
          <g>
            <path d="M103.8,690.3v3.9h1.8c0,0,.9.7.9.7-.2.3-.3.5-.5.8-.4.8-1,1.9-2.1,3.7l.8.9c.4-.3,1-1,1.6-1.7l1.1.9c-.7.7-1.3,1.2-1.8,1.7.3.3.8.8,1.3,1.2-.3.3-.6.7-.9,1.1-.7-.7-1.6-1.6-2.1-2.3v8.3h-1.3v-8.3c-.6.8-1.4,1.6-2.1,2.2-.2-.5-.4-1-.8-1.4,1.7-1.3,3.9-4.2,5-6.4h-4.5v-1.3h2.4v-3.9h1.3ZM108.6,694.8h8.4v5.9h-4.7l-1.2,1.5h5.1c0-.1,1.1.8,1.1.8-.5.7-1.7,2.1-3.3,3.3,1,.5,2.4,1.1,4.7,1.7-.4.5-.7.9-.8,1.3-2-.6-3.2-1.1-5.1-2.2-1.6.8-2.4,1.3-5.9,2.2-.1-.3-.3-.9-.7-1.3,1.8-.3,3.9-.9,5.5-1.8-.9-.7-1.6-1.4-2.3-2.1-.6.6-1.5,1.3-2.6,2.1-.2-.4-.5-.8-.9-1.2,2.4-1.5,3.8-2.9,4.9-4.4h-2v-5.9ZM110.9,690.8l-.7,1.2h8.2v1.3h-8.8c-.8,1.3-1.3,1.9-2,2.8-.1-.4-.4-1-.8-1.4,1.3-1.4,2.2-3.2,2.8-4.4l1.3.5ZM109.9,695.9v1.3h5.6v-1.3h-5.6ZM109.9,698.3v1.3h5.6v-1.3h-5.6ZM110.2,703.3c.7.8,1.5,1.5,2.6,2.2,1.2-.8,2-1.6,2.5-2.2h-5.1Z"/>
            <path d="M127.9,690.6v3.7h4.1v1.2h-4.1v.3c1.1.8,2.2,1.3,3.7,1.9-.3.4-.5.8-.7,1.2-1-.4-2-.9-3-1.6v2.1h-1.3v-2.6c-1.2,1.2-2.5,2.1-3.8,2.8-.2-.4-.5-.8-.8-1.1,1-.5,2.6-1.4,4.3-3h-4.2v-1.2h4.6v-3.7h1.3ZM127.3,700l-.8,1.5h5.6v1.2h-1.7c-.3,1.5-.8,2.7-1.4,3.6.6.4,1.1.7,1.6,1l-.8,1.1c-.5-.4-1-.8-1.7-1.1-1.4,1.2-2.9,1.7-5.4,2.1-.1-.4-.4-.9-.7-1.3,3.2-.3,4.1-.9,4.9-1.5-.8-.4-1.7-.8-2.4-1l-.4.7-1.2-.6c.6-.9,1-1.8,1.6-2.9h-2.5v-1.2h3.1c.3-.6.6-1.2.9-2l1.3.5ZM124.3,694c-.4-.7-.9-1.3-1.4-2l.9-.8c.6.6,1.1,1.4,1.5,2.1l-1,.7ZM125.9,702.7l-.9,1.7c1,.4,2,.8,2.8,1.2.7-.9,1.1-2,1.2-3h-3.1ZM131.6,692c-.6.7-1.2,1.4-1.8,2-.3-.3-.5-.5-.9-.8.5-.6,1.1-1.4,1.7-2.1l1,.8ZM140.5,695v1.3h-1.5c-.4,5-1.2,6.7-1.9,8.1,1.2,1.6,2,2.4,3.8,3.6-.3.5-.6.9-.8,1.4-2-1.5-2.9-2.6-3.8-3.8-1.3,1.6-2.2,2.4-4.3,3.7-.1-.5-.4-.9-.7-1.3,2.3-1.1,3.3-2.4,4.2-3.5-1-1.6-1.5-3.3-2-5.9-.4.8-.7,1.4-1.1,2.1-.3-.4-.6-.8-1-1.1.8-1.3,1.5-2.6,2.3-4.9.9-2.6,1.1-3.4,1.2-4.1l1.4.5c-.8,2.5-.8,2.8-1.3,4h5.6ZM134.4,696.2c.2,3.1,1,5.5,1.8,7,.9-2.2,1.2-4,1.4-7h-3.2Z"/>
            <path d="M153.3,707.1c2.1-.3,4.7-1.3,5.9-3,.8-1.1,1.1-2.5,1.1-3.9,0-3.9-2.2-6.1-6.3-6.2-.8,5.2-2.3,8.6-3.3,10.4-.7,1.3-1.6,2.6-2.9,2.6-1.8,0-3.3-2.5-3.3-5.7,0-5.6,4.4-8.6,9.3-8.6s8,1.9,8,7.6-2.7,6.9-7.7,8.4c-.2-.5-.5-1.2-.8-1.5ZM146,701.1c0,2.2.7,4.2,2,4.2s1.6-1.6,2-2.5c1.3-2.8,2.2-5.8,2.6-8.8-4.6.5-6.6,3.9-6.6,7.1Z"/>
            <path d="M184.2,704.6v1.5h-18.4v-1.5h11.5c.4-4.1.6-6,.8-9.1h-10v-1.5h11.8c-.3,2.8-.6,6.3-.9,10.6h5Z"/>
            <path d="M204.8,699.1v1.5h-16.6v-1.5h16.6Z"/>
            <path d="M221.5,691.7v4.6h4.5v1.4h-4.5c-.2,6-.3,9.3-8.4,11.5-.1-.5-.4-1.1-.8-1.6.8-.1,3.5-.7,5.1-2,1-.8,2.4-1.9,2.4-8h-5.7v4.8h-1.6v-4.8h-4.3v-1.4h4.3v-4h1.6v4h5.7v-4.6h1.7ZM223.3,691.8c.7.6,1.5,1.4,2,1.8l-.9.9c-.5-.5-1.3-1.3-1.9-1.9l.7-.8ZM226.2,692.8c-.5-.5-1.3-1.4-2-1.9l.8-.8c.6.5,1.4,1.3,2,2l-.9.8Z"/>
            <path d="M247,699.1v1.5h-16.6v-1.5h16.6Z"/>
            <path d="M259,691.6c-.3.7-.7,2.2-1.2,3.5.7,0,1.3-.1,1.7-.1,1.5,0,3.1.7,3.1,3.8s-1.6,9.8-3.9,9.8-2.5-1.5-3-2.4c.4-.2.8-.6,1-1,.3.6,1.2,1.7,1.9,1.7,1.3,0,2.8-5.6,2.8-8.3s-.6-2.4-2-2.4-1,0-1.8.2c-1.9,5.1-2.7,7.1-5.2,11.9l-1.4-.7c2.4-3.7,4.1-8.1,5-10.9-1.7.3-2.1.4-3.7.9l-.2-1.5c1.2-.1,2.5-.3,4.3-.6,0-.3.9-3.1,1.1-4.1l1.6.4ZM264.2,694.2c2.9,2.8,4.5,5.9,4.5,7.7s-.8,1.7-2.2,1.7-.6,0-1,0c0-.2,0-.4,0-.7s0-.5,0-.8c.3,0,.6.1.9.1s.6,0,.6-.6c0-1.2-.9-3.8-3.7-6.5l.9-.9ZM265.7,692.7c1,.7,1.9,1.4,2.4,2l-.9.9c-.6-.7-1.5-1.4-2.3-2.1l.7-.8ZM267.4,690.8c.8.6,1.8,1.4,2.4,2l-.8.9c-.5-.6-1.4-1.4-2.3-2l.7-.8Z"/>
            <path d="M290.2,691.6v15.4c0,1.4-.4,1.6-3.2,2,0-.5-.2-1.1-.5-1.7h1.9c.2,0,.3-.2.3-.4v-14h-13.2v15.9h-1.4v-17.3h16.1ZM286.9,695.5v1.3h-9.6v-1.3h9.6ZM286.1,699v6.7h-1.4v-1h-5.2v1.2h-1.4v-6.9h8ZM279.5,700.4v3h5.2v-3h-5.2Z"/>
            <path d="M301.3,692.2v14.2h-1.4v-1.4h-2.8v2h-1.3v-14.8h5.5ZM297.1,693.5v4.4h2.8v-4.4h-2.8ZM297.1,699.3v4.4h2.8v-4.4h-2.8ZM308.3,690.6v2.6h4.2v1.3h-4.2v2.9h5.4v1.3h-2.7v2.5h2.3v1.3h-2.3v5c0,1.1-.4,1.5-3.1,1.7,0-.4-.2-.9-.5-1.5h2c.2,0,.3,0,.3-.3v-4.8h-7.5v-1.3h7.5v-2.5h-7.8v-1.3h5.1v-2.9h-4.4v-1.3h4.4v-2.6h1.4ZM304.1,703.1c.8.7,1.7,1.6,2.4,2.4l-1,.9c-.7-.8-1.5-1.6-2.4-2.4l1-.9Z"/>
            <path d="M320.7,692.4c-.9,3.7-1.2,7.9-1.2,9.9s0,3.4.5,6l-1.5.4c-.3-1.8-.5-3.7-.5-6s.2-6.7,1.1-10.8l1.6.5ZM324.2,702.7c0,1.9.4,3.4,6.1,3.4s2.5-.1,3.4-.3v1.6c-.8.1-1.6.2-2.9.2-6.6,0-8.1-1.6-8.1-4.9h1.4ZM332.6,695.5c-.9-.1-1.5-.2-2.6-.2-2.4,0-4.2.2-6.3.7l-.2-1.4c1.2-.3,3.1-.6,6.6-.6s1.5,0,2.6,0v1.4Z"/>
            <path d="M355.6,697.2v1.4h-7.9c-.2,3.1-.3,5.7-2.4,7.8-.4.4-2.2,2-5,2.8-.1-.5-.6-1.3-.8-1.6.7-.1,4.7-1.2,5.9-4.3.6-1.6.6-3.3.7-4.8h-8.7v-1.4h18.2ZM351.8,692.4v1.4h-11.3v-1.4h11.3ZM353.4,691.6c.6.6,1.3,1.3,1.8,1.8l-.8.7c-.5-.6-1.2-1.4-1.7-1.8l.8-.7ZM354.9,690.2c.5.5,1.2,1.2,1.8,1.9l-.8.7c-.6-.6-1.2-1.4-1.7-1.9l.8-.7Z"/>
            <path d="M376.3,699.1v1.5h-16.6v-1.5h16.6Z"/>
            <path d="M394.5,694.2h.2c0-.1.9.8.9.8-.5.8-.7,1.3-.8,1.7-.3.8-1.5,3.4-3.3,5.6-2.7,3.5-7.3,6-9.8,6.8-.2-.4-.5-1-.9-1.4,1.3-.4,3.6-1.4,5-2.3,1.6-1,2.6-2,3.4-2.8-1.1-1-2.9-2.4-3.9-3l.9-1c.9.5,2.6,1.6,4,2.9,1.6-2,2-2.8,3.4-6h-6.5c-2.2,3.1-3.7,4.5-6.4,6.3-.2-.4-.7-1-1-1.3,1.4-.7,3.1-2,4.3-3.4,1.3-1.5,2.3-3,3.3-5.6l1.6.6c-.2.4-.5,1.2-1.1,2.3h6.7Z"/>
            <path d="M403,692.4c-.9,3.7-1.2,7.9-1.2,9.9s0,3.4.5,6l-1.5.4c-.3-1.8-.5-3.7-.5-6s.2-6.7,1.1-10.8l1.6.5ZM406.5,702.7c0,1.9.4,3.4,6.1,3.4s2.5-.1,3.4-.3v1.6c-.8.1-1.6.2-2.9.2-6.6,0-8.1-1.6-8.1-4.9h1.4ZM414.9,695.5c-.9-.1-1.5-.2-2.6-.2-2.4,0-4.2.2-6.3.7l-.2-1.4c1.2-.3,3.1-.6,6.6-.6s1.5,0,2.6,0v1.4Z"/>
            <path d="M434.6,692.7l1.1,1.2c-.7.6-1.8,1.7-2.6,2.3-1,.9-2.2,2-4.1,3.5l-.9-1.1c-.2,5.1-.7,8.2-6.6,10.4-.2-.4-.6-1.2-.9-1.5,1.2-.3,3.7-1.3,4.8-3.3.9-1.8.9-4.8,1-7h1.7v1.3c1.8-1.4,3.3-2.7,4.8-4.2h-13.3v-1.5h15Z"/>
            <path d="M451.7,694.8h.2c0-.1,1.1,1,1.1,1-.3.5-.5.9-.6,1.2-.9,2.2-2.4,6-6,8.7-2.2,1.6-3.4,2-6.3,3.1-.2-.5-.6-1.2-.9-1.5,1.9-.3,5.4-1.7,7.7-4.1,2-2.1,3-3.9,4.1-7.1h-6.8c-1.6,2.5-3.2,4.4-5.1,5.9-.2-.3-.8-.9-1.2-1.1,3.4-2.6,5.4-6.1,6.7-9.6l1.7.6c-.3.7-.8,1.6-1.5,2.9h6.8Z"/>
            <path d="M463,691.4v5.3c2.2-.3,3.4-.5,4.6-.7,1.2-.1,2.4-.3,3.9-.6l.4-.2,1.2,1.3c-1,1.1-1.5,1.7-2,2.2-1.1,1.3-2.4,2.6-3.8,3.8l-1-1.2c2.2-1.9,3.3-3.1,4.5-4.6-3,.4-5.4.8-7.8,1.2v6.8c0,1,0,1.6,1.4,1.8.9.1,3.2.1,4.8.1s2.5,0,3.7-.1v1.6c-.6,0-2,0-2.7,0-7.3,0-8.9-.3-8.8-2.8v-7.1c-1.8.3-3.6.5-4.9.8l-.3-1.5c1.4-.2,3.3-.5,5.2-.7v-5.6h1.7Z"/>
            <path d="M489.7,693.1l1.1,1.2c-.3.4-1.3,2.3-1.5,2.6-.6,1.1-1,1.6-2.2,3.3,0,.1,3.2,3.1,3.6,3.6,1.1,1.2,1.7,2,2.9,3.5l-1.4,1c-1.6-2.4-4.3-5.2-6-6.9-1.9,2.2-3.8,4.3-8.8,6.9-.2-.5-.8-1.2-1.1-1.5,2.8-1.1,5.3-2.8,7.5-5,1.6-1.7,3.3-3.8,5.1-7.2h-10.6v-1.4h11.4Z"/>
            <path d="M514.9,694c-1.2.1-3,.2-4.8.4-2.6,1-5.2,4.3-5.2,7.1s.1,1.6.7,2.6c1.2,2,3.3,2.5,6.3,2.7v1.7c-2-.2-4.2-.5-6.3-2.2-1.4-1.1-2.2-2.8-2.2-4.6s.6-4.5,4.1-7.2c-4.4.4-6.7.7-10.2,1.2v-1.6c2.8-.2,7.2-.6,7.8-.7,5.1-.5,7.7-.8,9.6-1v1.4ZM511.9,696.6c.4.5,1.2,1.6,1.7,2.2l-1,.7c-.5-.8-1.2-1.8-1.6-2.2l.9-.7ZM514,695.3c.4.5,1.4,1.8,1.7,2.2l-1,.7c-.4-.7-1.2-1.7-1.7-2.3l.9-.7Z"/>
            <path d="M526.8,691.1c.2.9.6,2.2,1.1,3.4,2.5-.4,4.1-.9,4.7-1.1l.3,1.3c-1.5.4-2.5.7-4.6,1,.4.9.8,1.8,1.1,2.2,1.1-.2,2.5-.4,5.4-1.4l.3,1.3c-1.8.6-3.6,1-5,1.3.5.8,1.2,1.9,2.7,3.3l-.9,1.3c-1.8-.8-3.5-1.2-5.5-1.2-3.3,0-4.7,1.2-4.7,2.7,0,2.2,4.1,2.3,6.1,2.3s3,0,4.8-.4v1.4c-1.4.2-2.5.3-4.1.3s-3.8-.2-4.6-.4c-3.4-.7-3.6-2.8-3.6-3.3,0-2,1.8-3.7,5.8-3.7s3.1.2,4.8.9c-1-1.1-1.7-2.1-2.3-3-3.9.5-6.7.5-7.4.5s-1.2,0-2,0v-1.3c1.2.1,1.9.2,2.5.2,1.1,0,3.5,0,6.3-.4-.4-.8-.8-1.6-1.2-2.4-1.7.2-3.1.3-5.8.3v-1.3c.9,0,1.5,0,2.2,0s1.6,0,3.1-.2c-.5-1-.8-2.3-1.2-3.3l1.6-.3Z"/>
            <path d="M112.2,728.8c-.8.5-1.2.8-1.5,1.2-2.8,2.5-3,2.7-5.6,4.9,2.1-.8,3.1-.8,4.4-.8s2.6.1,3.9,1c.7.5,2.1,1.6,2.1,4.1s-2.5,5.6-7.1,5.6-5.1-1.7-5.1-3,1.7-2.2,2.9-2.2,1.8.3,2.6,1,1.3,1.6,1.7,2.8c1.4-.5,1.9-.9,2.3-1.4.9-1,.9-2.3.9-2.8,0-1.5-.8-2.9-2.4-3.5-.9-.3-1.9-.4-2.5-.4-3.5,0-5.6,1.8-8.4,4.4l-1.1-1.3c1.1-.9,7.7-6.8,10.4-9.6-2.5.6-4.7.9-7.2,1v-1.4c4.2-.2,7.7-.7,8.5-1.1l1,1.4ZM109.4,743.5c-.7-2.3-2.1-2.8-3.1-2.8s-1.5.8-1.5,1.2c0,.8,1.2,1.7,3.3,1.7s.8,0,1.3,0Z"/>
            <path d="M128.1,727.2c-.2,1.6-.3,2.3-.3,4.7,2.3,0,3.6,0,6.5-.8v1.6c-1.7.3-3,.5-4.9.5s-.9,0-1.6,0c0,2.6,0,2.8,0,6.2,2.2.6,4.2,1.4,7.6,3.3l-1,1.4c-2.5-1.7-4.1-2.4-6.6-3.4,0,1.9-.2,2.6-1.4,3.2-1,.5-2.4.6-3,.6-3.3,0-4.4-1.7-4.4-3s1.4-2.8,4.5-2.8,1.9.1,2.9.3c0-3.3-.1-7.5-.1-11.8h1.8ZM123.4,743.2c3,0,3-1.3,3-3-.9-.2-1.6-.3-2.8-.3s-3.1.4-3.1,1.7,2.5,1.6,2.9,1.6Z"/>
            <path d="M139,733.3c1.3-.2,2.2-.4,2.9-.6,4-.9,4.9-1,5.9-1s2.3.2,3.2,2c.4.9.6,1.9.6,2.9,0,6.3-7.9,8.1-9.9,8.5,0-.3-.3-1-.6-1.6,3.5-.4,6.3-1.6,7.9-3.6.7-.8,1.2-1.8,1.2-3.5s0-3.5-2.4-3.5-6.5,1.3-8.4,1.9l-.3-1.6ZM148,729.6c-3.8-.1-6-.5-6.9-.8l.4-1.4c1.5.5,3.8.8,6.6.9v1.3Z"/>
            <path d="M159.6,728.4c-.9,3.7-1.2,7.9-1.2,9.9s0,3.4.5,6l-1.5.4c-.3-1.8-.5-3.7-.5-6s.2-6.7,1.1-10.8l1.6.5ZM163.1,738.7c0,1.9.4,3.4,6.1,3.4s2.5-.1,3.4-.3v1.6c-.8.1-1.6.2-2.9.2-6.6,0-8.1-1.6-8.1-4.9h1.4ZM171.5,731.5c-.9-.1-1.5-.2-2.6-.2-2.4,0-4.2.2-6.3.7l-.2-1.4c1.2-.3,3.1-.6,6.6-.6s1.5,0,2.6,0v1.4Z"/>
            <path d="M187.1,726.6c0,.7,0,1.1,0,1.6,0,.7,0,1.4,0,2.2,2.5,0,5.1-.2,7.1-.3v1.4c-.7,0-4.5,0-7.2.1,0,.9,0,5.1,0,5.9,0,.8,0,1.3,0,1.7,0,4-3.4,5.2-6.2,6.1-.1-.4-.5-1.2-.7-1.4,2.2-.4,3.8-1.2,4.7-2.1.8-.9.9-1.8,1-3-.6.8-1.2,1.4-2.2,1.4-1.7,0-2.9-1.5-2.9-3.3s.7-3.5,2.8-3.5,1.8.7,2.3,1.5c0-1.3,0-2.4,0-3.2-2.9.1-7.7.4-9.3.5v-1.4c1.7,0,7.7-.3,9.2-.4,0-.6,0-3.3,0-3.8h1.7ZM185,735.5c-.3-.5-.8-.9-1.5-.9s-1.8.7-1.8,2.2,0,1.2.8,1.8c.4.3.7.4,1.1.4,1.4,0,1.9-1.6,1.9-2.2-.2-.7-.3-1-.5-1.3Z"/>
            <path d="M209.5,728.8c-.8.5-1.2.8-1.5,1.2-2.8,2.5-3,2.7-5.6,4.9,2.1-.8,3.1-.8,4.4-.8s2.6.1,3.9,1c.7.5,2.1,1.6,2.1,4.1s-2.5,5.6-7.1,5.6-5.1-1.7-5.1-3,1.7-2.2,2.9-2.2,1.8.3,2.6,1,1.3,1.6,1.7,2.8c1.4-.5,1.9-.9,2.3-1.4.9-1,.9-2.3.9-2.8,0-1.5-.8-2.9-2.4-3.5-.9-.3-1.9-.4-2.5-.4-3.5,0-5.6,1.8-8.4,4.4l-1.1-1.3c1.1-.9,7.7-6.8,10.4-9.6-2.5.6-4.7.9-7.2,1v-1.4c4.2-.2,7.7-.7,8.5-1.1l1,1.4ZM206.6,743.5c-.7-2.3-2.1-2.8-3.1-2.8s-1.5.8-1.5,1.2c0,.8,1.2,1.7,3.3,1.7s.8,0,1.3,0Z"/>
            <path d="M218.6,745.1c-1.3,0-2.5-.9-2.5-2.5s1-2.5,2.5-2.5,2.5.9,2.5,2.5-1.5,2.5-2.5,2.5ZM218.6,744.1c1.1,0,1.5-.8,1.5-1.5,0-1.1-.9-1.5-1.5-1.5-1.2,0-1.5.9-1.5,1.5,0,1,.7,1.5,1.5,1.5Z"/>
          </g>
          <g>
            <path class="cls-3" d="M142.5,628.2v7.7h-16.3c-.3,13.9-5.6,19.5-18.9,23.6-.6-2.7-1.7-5.3-4.5-7.9,14.3-1.7,14.6-10.5,14.7-15.7h-17v-7.7h42ZM137.7,624.8c-.9-1.3-1.9-2.5-2.9-3.6v3.8h-27.7v-7.7h27l1.4-1.2c2,1.7,3.8,3.6,5.5,5.8l-3.2,2.9ZM139.4,612.6c2,1.5,3.9,3.6,5.8,5.6l-3.4,3c-1.7-2-3.5-3.9-5.6-5.9l3.2-2.7Z"/>
            <path class="cls-3" d="M185.4,632.7v7.5h-37.9v-7.5h37.9Z"/>
            <path class="cls-3" d="M215,617.8c-.5,1.1-1.1,2.2-1.7,3.3h10.7l.7-.3,5.1,5.7c-.6.8-.9,1.6-1.2,2.3-6.9,18.5-17.9,26.1-32.6,29.7-.8-2.6-1.7-4.8-4.2-7.4,5.1-1.2,11.4-2.9,17.4-7.7-1.8-1.8-1.9-1.8-6.9-5.8l4.8-5c3.3,1.9,3.7,2.2,7.5,5,2.4-3,3.8-6,5-9h-10.8c-6.2,8.4-11.7,11.6-14.8,13.4-1-2.2-2.3-4.7-4.8-6.7,9.3-4.9,14-12.6,17.8-20l8,2.4Z"/>
            <path class="cls-3" d="M254.5,642.5c-1,2.4-4.8,11.3-10.9,11.3s-9-7.7-9-14c0-9.8,6.7-21,22.5-21s19.6,16.7,19.6,17.9c0,4-.8,11.2-8.9,16.3-2.2,1.4-5.1,2.8-11.1,4.1-.6-2.6-1.8-5.5-3.3-7.6,8.8-.8,11.9-4.4,13-6,1.4-2.1,2.2-4.5,2.2-7s-.3-4.2-1.3-6c-1.1-1.8-3.3-4.1-7.9-5-1.1,6.2-2.2,10.6-4.8,17ZM243.3,632.7c-1,2.1-1.5,4.4-1.5,6.7s.6,6.1,2.7,6.1,4.4-4.3,7.5-19.6c-3.8,1.2-6.8,3-8.7,6.8Z"/>
            <path class="cls-3" d="M298.4,615.6v8h8.6v-7.9h7.3v7.9h7.7v7.2h-7.7v7.2h9.7v7.5h-12c3.6,2.9,7.1,5.1,12.7,7.5-1.7,1.8-3.4,3.9-4.5,6-4.7-2.2-10-5.2-14.6-10l3.4-3.6h-12.8l3.6,4.1c-2.2,2-6,5.4-13.3,9.1-1.2-2.2-2.5-4.2-4.3-6,2.6-1.2,7.4-3.7,11.6-7.3h-11.4v-7.5h8.6v-7.2h-6.7v-7.2h6.7v-8h7.3ZM298.4,630.7v7.2h8.6v-7.2h-8.6Z"/>
            <path class="cls-3" d="M354.3,615.6c-.6,1.3-1.3,2.8-2,4.3h19.7v6h-22.9c-.5.9-1,1.7-1.5,2.5h19.7v23.9c0,4.1-.6,6.4-9.8,6.8-.4-2-1.1-4.1-2.3-5.9h4.3c.5,0,.7-.3.7-.7v-3h-14.3v9h-7v-19c-3.5,3.6-5.1,4.9-6.7,6-.9-2.4-2.4-4.4-4.1-6.2,7.3-5.9,10.1-9.6,12.8-13.4h-10.7v-6h13.8c.9-2,1.8-3.9,2.6-6l7.7,1.7ZM345.9,636.3h14.3v-2.3h-14.3v2.3ZM345.9,641.6v2.3h14.3v-2.3h-14.3Z"/>
          </g>
        </g>
        <g>
          <g>
            <path d="M1402.2,697.2v1.4h-7.9c-.2,3.1-.3,5.7-2.4,7.8-.4.4-2.2,2-5,2.8-.1-.5-.6-1.3-.8-1.6.7-.1,4.7-1.2,5.9-4.3.6-1.6.6-3.3.7-4.8h-8.7v-1.4h18.2ZM1398.4,692.4v1.4h-11.3v-1.4h11.3ZM1400,691.6c.6.6,1.3,1.3,1.8,1.8l-.8.7c-.5-.6-1.2-1.4-1.7-1.8l.8-.7ZM1401.5,690.2c.5.5,1.2,1.2,1.8,1.9l-.8.7c-.6-.6-1.2-1.4-1.7-1.9l.8-.7Z"/>
            <path d="M1423,699.1v1.5h-16.6v-1.5h16.6Z"/>
            <path d="M1441.1,694.2h.2c0-.1.9.8.9.8-.5.8-.7,1.3-.8,1.7-.3.8-1.5,3.4-3.3,5.6-2.7,3.5-7.3,6-9.8,6.8-.2-.4-.5-1-.9-1.4,1.3-.4,3.6-1.4,5-2.3,1.6-1,2.6-2,3.4-2.8-1.1-1-2.9-2.4-3.9-3l.9-1c.9.5,2.6,1.6,4,2.9,1.6-2,2-2.8,3.4-6h-6.5c-2.2,3.1-3.7,4.5-6.4,6.3-.2-.4-.7-1-1-1.3,1.4-.7,3.1-2,4.3-3.4,1.3-1.5,2.3-3,3.3-5.6l1.6.6c-.2.4-.5,1.2-1.1,2.3h6.7Z"/>
            <path d="M1449.8,690.6v4.5h2.1v1.3h-2.1v1.7c.7.8,1.6,1.5,2.3,2.1-.3.4-.6.8-.8,1.3-.5-.4-1-.9-1.5-1.4v9.3h-1.3v-8.9c-.8,1.8-1.4,2.8-2.1,3.7-.1-.6-.4-1.1-.7-1.5,1.7-2.4,2.5-4.5,2.7-6.2h-2.2v-1.3h2.4v-4.5h1.3ZM1460.7,690.4v1.8h3.4v1.2h-3.4v1.4h2.6v1.2h-2.6v1.4h3.9v1.2h-6v1.2h4.6v5h1.3v1.2h-1.3v1.6c0,1-.2,1.3-2.6,1.7,0-.5-.3-1-.5-1.5h1.4c.2,0,.3-.1.3-.3v-1.5h-7.3v3.4h-1.4v-3.4h-1.7v-1.2h1.7v-5h4v-1.2h-5.7v-1.2h3.4v-1.4h-2.2v-1.2h2.2v-1.4h-3v-1.2h3v-1.7h1.4v1.7h3v-1.8h1.4ZM1454.6,701v1.3h2.7v-1.3h-2.7ZM1454.6,703.4v1.4h2.7v-1.4h-2.7ZM1456.4,693.4v1.4h3v-1.4h-3ZM1456.4,695.9v1.4h3v-1.4h-3ZM1458.6,701v1.3h3.3v-1.3h-3.3ZM1458.6,703.4v1.4h3.3v-1.4h-3.3Z"/>
            <path d="M1472.1,698.3v7c1.6,1.6,3.4,2.2,7.3,2.2h5.9c.6,0,.8,0,1.4,0-.2.5-.4,1-.5,1.4-7.3,0-8.1,0-9.3-.1-2.2-.3-3.7-.8-5.1-2-1,.8-2.2,1.7-3.3,2.4l-.8-1.4c.9-.5,2.1-1.2,3-1.9v-6.2h-2.7v-1.3h4ZM1469.8,691.1c1.1.7,2.2,1.4,3,2.1l-.9,1.2c-.9-.8-1.9-1.6-3-2.2l.9-1.1ZM1480.9,690.8v2.6h4.6v1.2h-4.6v2.6h5.8v1.3h-13.4v-1.3h6.2v-2.6h-3.8c-.4.7-.9,1.3-1.3,1.8-.3-.3-.7-.6-1.2-.8,1.1-1.3,1.9-2.6,2.7-4.5l1.3.5c-.3.5-.6,1.1-.9,1.7h3.1v-2.6h1.4ZM1484.9,700v6.2h-1.4v-.8h-6.8v.8h-1.4v-6.2h9.6ZM1476.8,701.2v3h6.8v-3h-6.8Z"/>
            <path d="M1499.5,691.5c-.3.5-.8,1.5-1.5,2.5,2.2-.1,3.2-.3,5.5-.8v1.4c-2.9.4-4.2.5-6.1.6-.5.8-1.1,1.6-1.9,2.6,1.1-.4,1.7-.4,2.2-.4,1.2,0,1.7.5,2,.7.5.5.5.9.6,1.9.6-.2,3.5-1.2,4-1.4.6-.2,1.3-.5,2-.8l.5,1.5c-1.7.3-2.5.6-6.5,2,0,1.1,0,2.5,0,3h-1.4v-2.5c-1.5.7-4.2,2-4.2,3.3s2.9,1.9,5.1,1.9,4-.1,5.3-.4v1.5c-2.3.3-4.7.3-5,.3-1,0-2.8,0-4.5-.7-1.7-.6-2.2-1.7-2.2-2.6,0-2.2,2.8-3.5,5.6-4.7,0-1,0-2.1-1.6-2.1s-3,1-6.1,4.5l-1.1-1.1c1.4-1.2,3-3,3.6-3.7.5-.6,1-1.3,2-2.8-1.7.1-3.1.2-4.1.1v-1.4c.7,0,1.6.1,2.7.1s1.1,0,2.1,0c.5-.9.7-1.4.9-1.9.2-.4.4-.9.6-1.3l1.5.6Z"/>
            <path d="M1524,693.5l1.3,1.2c-.2.5-.3.8-.4,1-2.6,7.8-6.3,10.2-10,12.1-.6.3-1.3.7-2.4,1-.2-.5-.6-1.2-.9-1.5,3.1-.6,5.9-2.6,7.3-3.9,2.4-2.5,3.7-5.2,4.6-8.3h-13.3v-1.4h13.9ZM1528.1,691.7c0,1.2-.9,2.1-2.1,2.1s-2.1-.9-2.1-2.1.8-2.1,2.1-2.1,2.1,1,2.1,2.1ZM1526,693c.9,0,1.3-.8,1.3-1.3,0-1-.9-1.3-1.3-1.3-.7,0-1.3.5-1.3,1.3s.8,1.3,1.3,1.3Z"/>
            <path d="M1545.7,693.5v13.9h-1.6v-1.3h-10.4v1.5h-1.6v-14h13.7ZM1533.6,694.8v9.8h10.4v-9.8h-10.4Z"/>
            <path d="M1564,694.9h.3c0-.1,1,.9,1,.9-1.4,3.4-1.6,3.8-2.4,5.2-.5.9-1.7,3-4.6,5.1-1.8,1.3-4.3,2.4-5.9,2.8-.1-.5-.5-1.1-.8-1.5,2-.4,5.2-1.7,7.2-3.6,3.2-3,4.1-5.9,4.6-7.6h-6.8c-1.2,1.7-2.8,4-5,5.9-.3-.4-1-1-1.3-1.1,4-2.9,5.9-7.3,6.7-9.4l1.6.6c-.2.6-.7,1.5-1.3,2.7h6.7ZM1564.6,692.3c.7.5,1.6,1.3,2.1,1.8l-.8.9c-.5-.6-1.4-1.4-2-1.9l.7-.8ZM1567.7,693.2c-.6-.6-1.4-1.3-2.1-1.9l.8-.8c.7.6,1.7,1.3,2.2,1.9l-.9.8Z"/>
            <path d="M1586.3,696.9l1,.9c-1.4,2.9-1.8,4-2.9,5.4-2.7,3.6-6.6,5.1-10.1,6.1,0-.6-.3-1.2-.7-1.7,8-1.2,10.4-6.3,11.5-9.2h-13.6v-1.4h14.7ZM1584.8,692.1v1.4h-11.1v-1.4h11.1Z"/>
            <path d="M1590.9,705.8h2.3c2.3-4.9,3.4-7.7,5.9-14l1.7.7c-.8,1.8-1.2,2.8-1.6,3.7-2,4.6-3,6.8-4.2,9.4,4.7-.3,7-.6,9.7-1-1.4-2.2-2-3-3.7-5.3l1.3-.8c1.6,2,3.8,5,5.8,8.8l-1.7.8c-.2-.5-.6-1.4-1.2-2.3-3.8.7-4.9.8-14,1.9l-.4-1.8Z"/>
            <path d="M1620.8,707.1c2.1-.3,4.7-1.3,5.9-3,.8-1.1,1.1-2.5,1.1-3.9,0-3.9-2.2-6.1-6.3-6.2-.8,5.2-2.3,8.6-3.3,10.4-.7,1.3-1.6,2.6-2.9,2.6-1.8,0-3.3-2.5-3.3-5.7,0-5.6,4.4-8.6,9.3-8.6s8,1.9,8,7.6-2.7,6.9-7.7,8.4c-.2-.5-.5-1.2-.8-1.5ZM1613.4,701.1c0,2.2.7,4.2,2,4.2s1.6-1.6,2-2.5c1.3-2.8,2.2-5.8,2.6-8.8-4.6.5-6.6,3.9-6.6,7.1Z"/>
            <path d="M1641.6,696.5v-1.7h1.4v1.7h6.3v1.3h-6.3c0,.7,0,1.3,0,1.8h5.6v1.3h-5.7c0,.6-.1,1.2-.2,1.7h8.5v1.3h-6.9c1.7,2,3.5,3.1,7.6,3.8-.3.3-.7,1-.8,1.4-4.3-1-6.5-2.5-8.4-5.2h-.4c-1.6,3.3-4.2,4.5-8,5.5-.1-.4-.3-1-.8-1.5,4.8-.9,6.2-2.4,7.1-4h-6.8v-1.3h7.2c.2-.5.3-1.1.3-1.7h-5v-1.3h5.2c0-.5,0-1.2,0-1.8h-5.8v-1.3h5.8ZM1643.1,690.5v2.3h7.3v3.6h-1.4v-2.3h-13.3v2.3h-1.4v-3.6h7.3v-2.3h1.4Z"/>
            <path d="M1661.3,690.7v8.8h-1.3v-2.6c-1,.4-1.5.6-2.1.8-.6.2-1.2.4-2.3.8l-.5-1.4c1.4-.3,1.7-.5,4.9-1.5v-4.9h1.3ZM1665.5,699.5v1.8h8.3v1.2h-7.9c.8,1,1.6,2,2.5,2.8.9-.7,1.8-1.4,2.7-2.1l1,.9c-1,.7-1.8,1.3-2.6,1.9,1.2.7,2.4,1.2,4.6,1.8-.4.4-.7.9-.9,1.3-3.9-1.2-6.3-2.8-8.5-6-1,.7-2.2,1.3-3.3,1.8v2.6c1.7-.1,3.5-.3,5.2-.5v1.2c-2.1.3-3.3.5-4.4.6-1.2.1-2.5.3-4.8.5l-.3-1.4c1.1,0,2.1-.1,3-.2v-2.3c-1.4.5-2.9,1-4.2,1.3-.1-.4-.3-.8-.7-1.3,1.6-.3,4.8-1.1,8-2.9h-7.7v-1.2h8.6v-1.8h1.3ZM1657.9,694.5c-.7-.8-1.5-1.5-2.2-2.1l.9-.9c.8.7,1.6,1.4,2.2,2.1l-.9.9ZM1668.6,690.6v2.6h5.2v1.2h-5.2v2.9h4.5v1.2h-10.3v-1.2h4.4v-2.9h-5.2v-1.2h5.2v-2.6h1.3Z"/>
            <path d="M1685.5,691.7c-.2.8-.7,2.1-1.2,3.5.7,0,1.3-.1,1.7-.1,3.4,0,3.4,2.7,3.4,3.5,0,2.7-1,6.6-2.3,8.7-.8,1.3-1.4,1.4-1.9,1.4-1.2,0-2.8-2-3-2.4.4-.3.8-.7.9-1,.4.7,1.3,1.7,1.9,1.7,1.2,0,3-5,3-8.8s0-2-2.1-2-.9,0-1.8.1c-.5,1.3-2.8,6.9-3.3,8-.5,1.2-1.1,2.5-1.9,3.9l-1.4-.7c2.2-4,3.4-7,4.9-11-.8.1-3,.6-3.7.8l-.3-1.5c.6,0,.9,0,1.3-.1.8-.1,1.8-.3,3-.4.5-1.3.9-2.7,1.2-4.1l1.5.5ZM1691.2,694.3c3.4,3.3,4.3,6,4.3,7.3,0,1.9-.9,2-2.1,2s-.7,0-1.1,0c0-.3,0-1-.1-1.4.2,0,.9,0,.9,0,.5,0,.8-.3.8-.9,0-.9-.9-3.7-3.7-6.3l1-.8Z"/>
            <path d="M1702.4,695.4c-.7,1.8-1,3.9-1.3,6.3,2.7-2,4.9-2.8,7.1-2.8s5,1,5,4c0,5.2-7.2,6-10.9,6,0-.5,0-1-.3-1.5,3.3,0,9.6-.3,9.6-4.5s-2.4-2.8-3.5-2.8c-2.9,0-5.3,1.4-7.4,3.8l-1.2-.5c.3-3.8.7-6.6,1.2-8.6l1.6.5ZM1708.7,694.1c-2.5-.7-4.2-1.2-6.6-2.3l.6-1.3c1.5.7,3.4,1.5,6.5,2.2l-.4,1.5Z"/>
            <path d="M1720.8,691v5.2l4-.6v1.3c.1,0-4,.7-4,.7v6.4c0,.7.6.7.8.7,1.3,0,1.4,0,1.6-.3.2-.3.3-1,.4-1.8.5.3,1,.5,1.4.6-.4,2.7-1.4,2.8-2.2,2.8-2,0-2.2,0-2.5-.1-.8-.3-.9-1-.9-1.8v-6.3l-2.3.3-.2-1.3,2.5-.3v-5.4h1.4ZM1724.8,693.3v-1.4h9.8c0,6.7-.4,12.6-.6,14.1-.3,1.8-.7,2.3-3.5,2.5,0-.5-.3-1.1-.6-1.5h1.7c.9,0,1-.4,1.2-2,.2-2.1.5-7.1.5-11.7h-3.8c0,8.2,0,12.1-5.8,15.8-.2-.4-.5-.9-.9-1.3,3.1-1.6,4.5-4,4.9-6.3.4-1.8.4-4.8.4-8.3h-3.2Z"/>
            <path d="M1742.7,692.2c-1.2,3.5-1.3,6.9-1.3,7.5s0,2.2.5,2.2.9-1.4,1-2.2c.3.3.8.5,1.2.6-.5,2.5-1.7,3.7-2.4,3.7s-1.2-1.2-1.3-1.6c-.3-1-.4-2.1-.4-3.2,0-2.5.4-5,1-7.5l1.6.4ZM1751,691.5c.1,2.5.2,3.9.2,5.6,0,5.8-.9,8-2.9,9.6-1.3,1-3.2,1.8-4.8,2.2-.1-.5-.4-1.3-.6-1.5,6.3-1.3,6.9-4.5,6.9-9.5s0-3.5-.4-6.3l1.7-.2Z"/>
            <path d="M1762,690.5v1.8h4.4v1.3h-10.4v-1.3h4.7v-1.8h1.4ZM1765.3,699.9h-3.4l-.4,1.4h4.4v6.4c0,1.1-.3,1.5-2.8,1.7,0-.4-.3-1-.6-1.5h1.7c.2,0,.3-.1.3-.3v-5h-3.3c-.3.9-.6,1.9-.8,2.6.6,0,1.2-.2,1.7-.3-.1-.4-.3-.9-.5-1.2l1.1-.3c.4,1.1.8,2.3,1.1,3.2l-1.1.3-.3-1c-1.3.2-2.5.5-3.9.8l-.3-1.2h.9c.4-1.2.6-2.1.8-2.9h-2.3v6.6h-1.4v-7.9h4l.3-1.4h-3.7v-5.3h1.3v4.2h5.8v-4.1h1.3v5.2ZM1763.3,694.5c-.5.6-.8,1-1.3,1.5.5.4.9.8,1.3,1.1l-.8.8c-.4-.4-.9-.8-1.3-1.1-.5.5-1,1-1.5,1.4-.2-.3-.5-.6-.9-.8.5-.3,1.1-.8,1.5-1.2-.4-.3-.9-.7-1.3-1l.7-.8c.5.3.9.7,1.4,1.1.5-.5.9-1,1.3-1.5l.9.7ZM1774.3,694.7v1.3h-2.5v2.7h2v1.3h-2v2.8h1.9v1.3h-1.9v3h2.7v1.3h-5.9v1.2h-1.3v-12.4c-.3.6-.6,1.2-.9,1.6-.3-.4-.6-.9-1-1.2,1.2-2.1,2-3.4,3.2-6.9l1.3.6c-.5,1.2-1,2.5-1.5,3.6h2.2c.5-1.1.9-2.5,1.3-3.8l1.4.5c-.4,1.1-.9,2.3-1.3,3.3h2.3ZM1768.6,696v2.7h1.9v-2.7h-1.9ZM1768.6,699.9v2.8h1.9v-2.8h-1.9ZM1768.6,704v3h1.9v-3h-1.9Z"/>
            <path d="M1781.6,691.8c-.3,2.6-.5,9.2-.5,10.7s0,2.8.5,3.4c.7.8,1.7,1.1,2.8,1.1s3-.4,4.7-1.7c1.9-1.5,2.7-3.3,3.3-4.6.5.5,1.1.9,1.4,1-2.5,4.7-6.2,6.6-9.4,6.6s-3.4-.9-3.9-1.6c-.8-1.1-.8-2.8-.8-4.4s.2-9.1.2-10.6h1.8Z"/>
            <path d="M1797.9,704.1c1.6,1.7,2.3,2.6,3.3,3.9l-1.3,1c-.9-1.3-1.7-2.5-3.1-4l1-.9Z"/>
            <path d="M1394.2,737.1v1.6h8.3v1.3h-7c2.3,2.1,5.4,3,7.6,3.4-.5.4-.7.9-.9,1.4-3.9-1-6-2.1-8-4.2v4.9h-1.5v-4.8c-2.7,2.4-5.8,3.6-8,4.3-.1-.4-.3-.9-.7-1.3,2.8-.7,5-1.8,7.5-3.7h-7v-1.3h8.1v-1.6h1.5ZM1398.1,727.1l1,1c-1.1.7-1.7,1.1-2.2,1.5-.6.4-1.3.8-2.4,1.5l.5.4h6.1l.3-.2,1,.9c-1,.9-2.6,2.2-4.2,3.4-.3-.4-.5-.7-.9-1,.9-.7,1.7-1.2,2.6-1.9h-5.8v2.8c0,1.1-.3,1.5-2.7,1.7,0-.4-.2-.9-.5-1.4h1.6c.2,0,.3,0,.3-.3v-2.5c-2.3,1.7-3.7,2.4-7.7,3.8-.2-.4-.4-.8-.8-1.2,2.2-.6,4.2-1.3,6.8-2.9h-6.7v-1.2h8.1c-.8-.5-1.8-1-2.9-1.6l.8-1.1c.9.4,1.8.9,2.8,1.6.8-.5,1.8-1.2,2.6-1.8h-9.4v-1.2h11.3l.3-.2Z"/>
            <path d="M1411.2,726.7v2.3h3.4v1.3h-3.4v1.6h2.9v7.2h-2.9v1.7h3.5v1.3h-3.5v3.3h-1.3v-3.3h-3.8v-1.3h3.8v-1.7h-3.1v-7.2h3.1v-1.6h-3.6v-1.3h3.6v-2.3h1.3ZM1408.1,733.1v1.7h1.8v-1.7h-1.8ZM1408.1,736v1.8h1.8v-1.8h-1.8ZM1411.2,733.1v1.7h1.6v-1.7h-1.6ZM1411.2,736v1.8h1.6v-1.8h-1.6ZM1423.5,730.7h.2c0-.1,1.2.8,1.2.8-.3.5-.7,1.4-1,1.9-.3.5-.5,1.1-1.2,2.2-.3-.3-.8-.5-1.2-.7.6-1,1.1-1.9,1.5-2.8h-2.7v3c.6,5.3,2.8,7.3,4.4,8.8-.4.4-.7.9-.9,1.3-2.4-2.3-3.3-3.9-4-6.7-.9,3.1-1.8,4.8-4.8,6.9-.2-.4-.5-.9-.9-1.3,1.1-.7,2.5-1.6,3.6-3.9,1.1-2.1,1.2-4.4,1.2-8.2h-1.1c-.4.9-.9,1.9-1.5,2.8-.4-.3-.8-.6-1.2-.8,1.1-1.8,1.8-3.2,3.3-7.4l1.4.5c-.3.8-.4,1.1-.6,1.6-.2.5-.4,1.1-.8,2h5.1Z"/>
            <path d="M1430.1,730.7c-.2,2.4-.5,3.5-.9,5l-1.2-.3c.5-1.5.8-2.6.9-4.9l1.2.3ZM1432.3,726.7v18.7h-1.4v-18.7h1.4ZM1434.1,729.6c.4.9.9,1.9,1.3,2.9l-1.2.5c-.4-1-.8-2.1-1.2-2.9l1-.4ZM1441.7,726.8v4.9h4.6v1.3h-4.6v4.2h4v1.3h-4v5.2h5.3v1.3h-12.7v-1.3h6v-5.2h-4v-1.3h4v-4.2h-3.2c-.4,1.1-.9,2.2-1.5,3.3-.4-.3-.8-.6-1.2-.7,1.2-2.1,1.9-3.5,2.4-7.6l1.4.3c-.3,1.7-.3,1.9-.7,3.4h2.9v-4.9h1.4Z"/>
            <path d="M1459.8,727.5c-.3.5-.8,1.5-1.5,2.5,2.2-.1,3.2-.3,5.5-.8v1.4c-2.9.4-4.2.5-6.1.6-.5.8-1.1,1.6-1.9,2.6,1.1-.4,1.7-.4,2.2-.4,1.2,0,1.7.5,2,.7.5.5.5.9.6,1.9.6-.2,3.5-1.2,4-1.4.6-.2,1.3-.5,2-.8l.5,1.5c-1.7.3-2.5.6-6.5,2,0,1.1,0,2.5,0,3h-1.4v-2.5c-1.5.7-4.2,2-4.2,3.3s2.9,1.9,5.1,1.9,4-.1,5.3-.4v1.5c-2.3.3-4.7.3-5,.3-1,0-2.8,0-4.5-.7-1.7-.6-2.2-1.7-2.2-2.6,0-2.2,2.8-3.5,5.6-4.7,0-1,0-2.1-1.6-2.1s-3,1-6.1,4.5l-1.1-1.1c1.4-1.2,3-3,3.6-3.7.5-.6,1-1.3,2-2.8-1.7.1-3.1.2-4.1.1v-1.4c.7,0,1.6.1,2.7.1s1.1,0,2.1,0c.5-.9.7-1.4.9-1.9.2-.4.4-.9.6-1.3l1.5.6Z"/>
            <path d="M1474.5,726.5v4.5h2.3v1.3h-2.3v3.4c.7-.2,1.6-.6,2.3-.9v1.3c-.7.3-1.4.6-2.3.9v6.6c0,1.3-.5,1.5-3.1,1.8,0-.4-.2-1-.5-1.5h1.8c.2,0,.3,0,.3-.3v-6.1c-.8.4-1.8.7-2.8,1l-.4-1.3c1.2-.4,2.3-.7,3.1-1v-3.8h-2.8v-1.3h2.8v-4.5h1.4ZM1483.7,726.6v2.6h4.3v1.3h-4.3v2.9h5.5v1.3h-2.8v2.3h2.5v1.3h-2.5v5c0,1.3-.8,1.4-3.1,1.6,0-.5-.2-1.1-.5-1.5h1.9c.2,0,.3,0,.3-.3v-4.8h-7.5v-1.3h7.5v-2.3h-7.7v-1.3h5.1v-2.9h-4.3v-1.3h4.3v-2.6h1.4ZM1481,742.4c-.7-.9-1.6-1.7-2.5-2.4l.9-.9c1,.7,1.8,1.5,2.5,2.4l-.9.9Z"/>
            <path d="M1500.5,727.6c-.3.8-.7,2.1-1.2,3.4,1.4-.2,3.2-.5,4.7-1v1.4c-.9.3-1.9.5-5.1.9-2.3,6.8-2.4,6.9-4.8,12.3l-1.4-.7c2.4-4.7,3.4-7.6,4.7-11.4-1.1,0-2.1.1-2.8.1s-.7,0-.9,0v-1.4c.5,0,1.3.1,2.2.1s1.2,0,1.8,0c.5-1.5.9-3,1.2-4.1l1.6.5ZM1501,739.6c0,.9,0,2.3,1.4,2.9.8.3,2.6.4,4.1.4s1.6,0,3.9-.3v1.6c-1.2.1-2.4.2-3.6.2-5.6,0-7.2-1.2-7.2-4.8h1.4ZM1509.5,734.6c-1,0-1.7,0-2.4,0-1.7,0-3.7.1-5.5.4l-.2-1.3c2.8-.5,5.1-.5,6.5-.5s1.2,0,1.7,0v1.5Z"/>
            <path d="M1527.5,727.6c0,.8,0,4.3,0,5,.7,0,3.7-.3,4.4-.3v1.4c-1,0-3.5.1-4.4.2,0,1.4,0,4.9-.5,5.7-.1.2-.5.6-1.2.6s-1.4,0-3-.9c.1-.3.3-1,.3-1.3,1,.6,1.9.9,2.2.9s.5-.3.6-1.2c0-.5.1-1.9.1-3.6-1.7.1-5.5.4-6.8.5,0,1.9,0,5.3,0,5.5,0,1.6,0,2.3.9,2.6.2,0,1.7.4,4.5.4s1.6,0,4.8-.2v1.4c-1.6.1-2.7.1-3.8.1-7.8,0-7.9-.9-7.9-4.7s0-2.4,0-5c-1.4.1-3.1.3-4,.3v-1.4c.9,0,2.8-.1,4-.3,0-1.5,0-3.1,0-4.2h1.7c0,.8,0,2.6-.1,4.2,1,0,5.8-.4,6.7-.5,0-1.7-.1-4.6-.1-5h1.7Z"/>
            <path d="M1547.8,728.8c-.8.5-1.2.8-1.5,1.2-2.8,2.5-3,2.7-5.6,4.9,2.1-.8,3.1-.8,4.4-.8s2.6.1,3.9,1c.7.5,2.1,1.6,2.1,4.1s-2.5,5.6-7.1,5.6-5.1-1.7-5.1-3,1.7-2.2,2.9-2.2,1.8.3,2.6,1c.9.8,1.3,1.6,1.7,2.8,1.4-.5,1.9-.9,2.3-1.4.9-1,.9-2.3.9-2.8,0-1.5-.8-2.9-2.4-3.5-.9-.3-1.9-.4-2.5-.4-3.5,0-5.6,1.8-8.4,4.4l-1.1-1.3c1.1-.9,7.7-6.8,10.4-9.6-2.5.6-4.7.9-7.2,1v-1.4c4.2-.2,7.7-.7,8.5-1.1l1,1.4ZM1544.9,743.5c-.7-2.3-2.1-2.8-3.1-2.8s-1.5.8-1.5,1.2c0,.8,1.2,1.7,3.3,1.7s.8,0,1.3,0Z"/>
            <path d="M1556.9,745.1c-1.3,0-2.5-.9-2.5-2.5s1-2.5,2.5-2.5,2.5.9,2.5,2.5-1.5,2.5-2.5,2.5ZM1556.9,744.1c1.1,0,1.5-.8,1.5-1.5,0-1.1-.9-1.5-1.5-1.5-1.2,0-1.5.9-1.5,1.5,0,1,.7,1.5,1.5,1.5Z"/>
          </g>
          <g>
            <path class="cls-3" d="M1416.8,622.2c-1-1.2-1.3-2.4-1.3-3.3,0-3.8,3.1-6,6-6s6,2.8,6,6-3,6-6,6-1.3-.2-2.2-.5l2.3,1.7c-.4,1.1-2,5.5-2.3,6.3-6.7,17.3-17.7,22.1-28.6,25.9-.4-2.9-1.9-5.7-3.8-8,4.3-1.1,7.6-1.9,12.7-5.2,5.8-3.7,9.5-8.8,12.4-16.7h-25.9v-7.7h27.8l.8-.4,2.1,1.9ZM1419.1,618.8c0,1.7,1.5,2.5,2.4,2.5,1.6,0,2.5-1.3,2.5-2.4s-1.4-2.4-2.4-2.4c-1.2,0-2.4,1.1-2.4,2.4Z"/>
            <path class="cls-3" d="M1466,620v34.2h-8.3v-1.6h-18.2v2.2h-8.1v-34.8h34.6ZM1439.5,645h18.2v-17.4h-18.2v17.4Z"/>
            <path class="cls-3" d="M1495.8,618.3c-.6,1.2-1,2.5-1.8,4.1h10.5l.8-.4,4.3,4.9c-.5,1-2.1,5.3-2.5,6.1-5,12.2-11.2,19.9-27.9,24.7-.9-2.5-2.5-5.1-5.2-7.3,4.2-1,12.7-3.1,18.5-8.9,2.5-2.6,5.3-7,7-11.6h-9.5c-2.3,3.6-6,8.9-12.8,13.1-1.3-2.2-3.1-4.4-5.8-5.9,5.8-3.8,11.4-8.4,15.6-21.2l8.7,2.4ZM1506.4,616.8c2.2,1.3,4.1,3.2,6.1,5.2l-3.3,3.2c-1.7-2-3.6-3.8-5.8-5.5l3-2.9ZM1510.4,612.8c2.2,1.4,4.1,3.3,6,5.1l-3.2,3.2c-1.8-1.9-3.7-3.7-5.9-5.4l3.1-2.9Z"/>
            <path class="cls-3" d="M1550.2,627.9l5.1,4.5c-.9,1.7-1.3,2.7-1.7,3.7-2,4.6-5.5,10.5-10.3,14.4-3.5,2.8-10.2,6.6-18.8,8-.2-2.3-1.4-5.3-3.7-8,4.8-.5,9.6-1.6,13.9-4,.8-.4,6.6-3.8,9.9-10.8h-26.5v-7.5h31.5l.6-.3ZM1548.7,617.5v7.5h-25.7v-7.5h25.7Z"/>
            <path class="cls-3" d="M1584.8,619.7c-1.1,2.3-5.3,12.3-6.2,14.4-2.1,4.7-2.4,5.6-5.7,13,5.1-.2,10.3-.7,15.5-1.3-4.4-6.7-4.8-7.5-6.9-9.8l6.2-4c5.5,6.5,9.3,12.3,14.1,21.2l-7.7,4c-.8-1.6-1.5-3.3-2.4-5-9.8,1.9-16.9,2.6-31,3.7l-.9-8.6h4.5c5.7-11.9,9-21.1,12.2-30.3l8.2,2.7Z"/>
            <path class="cls-3" d="M1607.5,625.3c1.2-.1,9.1-1.2,9.6-1.2.7-2.4,1.7-6.4,2.2-8.5l8.3,2.2c-.7,2-1.2,3.9-1.8,5.4,2.1,0,6.2-.1,8.3,4.8.7,1.7,1.2,4,1.2,6.4,0,8.4-4.2,23.5-11.8,23.5s-5.4-2.5-7.6-6.2c1.8-1.5,3.4-3.4,4.5-5.4.5,1.2,1.4,3,2.5,3,1.7,0,5-8.9,5-15.2s-.8-3.8-2.4-3.8-1.2,0-2.3.3c-2.7,7.7-3.9,10.5-6.6,16.1-1.3,2.7-2.9,6-5.4,10.1l-7.2-4c4.5-6.5,7.6-13.5,10.7-20.6-2.6.4-3.6.6-6.2,1.3l-1-8.1ZM1639.3,621.3c2.4,2.1,4.5,3.9,6.5,6.9,2.4,3.5,4.4,7.6,4.4,12.3s-3.7,6.6-6.9,6.6-2.1,0-3.8-.2c0-.3,0-.8,0-1.3,0-1.8-.3-4.3-1.1-6,1.2.2,2,.3,2.5.3s1.2-.2,1.2-1.3c0-1.9-1.7-7.3-8-13.2l5.1-4.1Z"/>
            <path class="cls-3" d="M1665.9,626.3c-2.1,5.9-2.4,7.3-3,10.8,4.8-3.1,9-4.5,13.6-4.5,7.2,0,12.3,3.9,12.3,10.4s-8.7,12.4-11.4,13.2c-3.1,1-7.2,1.9-14.8,1.9,0-2.7-.8-5.3-2.4-7.5,1.5,0,2.7,0,3.6,0,10.8,0,16.3-3.7,16.3-8s-1.7-3.3-4.4-3.3-4.8.7-7.9,2.3c-4,2.2-5.8,4.5-7.1,6.2l-5.6-3.2c.3-6.9.9-10.6,2.9-20.3l7.8,1.8ZM1663.3,613.8c4.7,2.4,7.8,3.7,15.2,5.1l-2.2,7.1c-5.7-1.3-10.5-2.5-16.1-6l3-6.3Z"/>
            <path class="cls-3" d="M1699.2,614.7c1.2,1.5,2.4,3.5,3.5,5.1,1.2-1.3,2.6-2.9,3.7-4.4l4.9,3.7c-1.7,2.2-3.9,4.6-6,6.5,1,3.3,2.4,8.6,2.4,17s0,5-.6,8.1c-.9,5.6-2.2,7.3-10.4,7.4-.2-2-.7-3.9-1.5-5.6h4.3c1.3,0,1.5-.4,1.7-2.4.3-1.9.6-3.8.6-8.1-1.4,1.6-3,3.4-6.1,5.3-.8-2.2-1.9-4.5-3.3-6,2.5-1.5,5.3-3.6,8.6-7.7-.1-1.1-.5-2.6-.8-3.6-1.3,1-2.6,1.9-3.9,2.8-.9-1.8-2.4-3.9-4-5.3,1.9-1,3.8-2.2,5.5-3.6-1-2.1-2.3-4.2-3.6-6l4.8-3.4ZM1725.6,615.7v8.8h10.3v17.8h-10.3v7.5c1.1,0,2-.2,3.1-.3-.6-1.1-1.3-2.4-2-3.5l5.5-2.6c2.4,3.7,3.6,6.2,6.5,12.8l-5.9,2.3c-.4-1.2-1-2.5-1.5-3.6-4.1.6-6.6,1-9.1,1.3-3.3.5-6.6,1-12.8,1.6l-1.4-6.4c3.8-.1,7.6-.5,11.3-.9v-8.2h-3.4v2.2h-6.2v-19.9h9.6v-8.8h6.3ZM1715.9,636.8h3.4v-6.9h-3.4v6.9ZM1725.6,636.8h3.9v-6.9h-3.9v6.9Z"/>
            <path class="cls-3" d="M1767.4,615v5.7h14.5v6.7h-9.7l6.9,1.7c-1.3,4.5-5.1,16.4-6.6,21h11.8v6.8h-41.3v-6.8h22.1c2.2-7.1,4.9-17.1,6.3-22.8h-26.5v-6.7h15.1v-5.7h7.5ZM1755.4,628.9c2.2,5.4,4.2,11.6,5.4,17.8l-7.1,1.9c-1.2-5.9-2.7-11.1-5.3-17.6l7-2.1Z"/>
          </g>
        </g>
        <g>
          <g>
            <path d="M1402.6,965.5v1.4h-18.4v-1.4h18.4Z"/>
            <path d="M1421.9,957.6l-.3,2.5h3.2v1.1h-3.4l-.3,2.5h-11.8l.3-2.5h-3.4v-1.1h3.5l.4-2.5h11.8ZM1413.4,973.8c-2.1.9-3.3,1.4-6.3,2-.1-.4-.3-.9-.6-1.3,1.8-.2,4-.6,5.8-1.7l1.1,1ZM1418.7,972.7h-9.4v-8.1h12.6v8.1h-2.8c1.8.9,3.6,1.5,5.6,1.7-.4.4-.6.9-.7,1.4-3.1-.7-4.5-1.4-5.9-2.2l.7-.9ZM1410.7,965.7v1.2h9.8v-1.2h-9.8ZM1410.7,968v1.2h9.8v-1.2h-9.8ZM1410.7,970.3v1.3h9.8v-1.3h-9.8ZM1411,961.2l-.2,1.4h3.6l.2-1.4h-3.6ZM1411.3,958.8l-.2,1.3h3.6l.2-1.3h-3.6ZM1415.9,961.2l-.2,1.4h4.1l.2-1.4h-4.2ZM1416.2,958.8l-.2,1.3h4.1v-1.3c.1,0-3.9,0-3.9,0Z"/>
            <path d="M1430.1,961c-.2,2.4-.5,3.5-.9,5l-1.2-.3c.5-1.5.8-2.6.9-4.9l1.2.3ZM1432.3,957v18.7h-1.4v-18.7h1.4ZM1434.1,959.9c.4.9.9,1.9,1.3,2.9l-1.2.5c-.4-1-.8-2.1-1.2-2.9l1-.4ZM1441.7,957.1v4.9h4.6v1.3h-4.6v4.2h4v1.3h-4v5.2h5.3v1.3h-12.7v-1.3h6v-5.2h-4v-1.3h4v-4.2h-3.2c-.4,1.1-.9,2.2-1.5,3.3-.4-.3-.8-.6-1.2-.7,1.2-2.1,1.9-3.5,2.4-7.6l1.4.3c-.3,1.7-.3,1.9-.7,3.4h2.9v-4.9h1.4Z"/>
            <path d="M1459.8,957.8c-.3.5-.8,1.5-1.5,2.5,2.2-.1,3.2-.3,5.5-.8v1.4c-2.9.4-4.2.5-6.1.6-.5.8-1.1,1.6-1.9,2.6,1.1-.4,1.7-.4,2.2-.4,1.2,0,1.7.5,2,.7.5.5.5.9.6,1.9.6-.2,3.5-1.2,4-1.4.6-.2,1.3-.5,2-.8l.5,1.5c-1.7.3-2.5.6-6.5,2,0,1.1,0,2.5,0,3h-1.4v-2.5c-1.5.7-4.2,2-4.2,3.3s2.9,1.9,5.1,1.9,4-.1,5.3-.4v1.5c-2.3.3-4.7.3-5,.3-1,0-2.8,0-4.5-.7-1.7-.6-2.2-1.7-2.2-2.6,0-2.2,2.8-3.5,5.6-4.7,0-1,0-2.1-1.6-2.1s-3,1-6.1,4.5l-1.1-1.1c1.4-1.2,3-3,3.6-3.7.5-.6,1-1.3,2-2.8-1.7.1-3.1.2-4.1.1v-1.4c.7,0,1.6.1,2.7.1s1.1,0,2.1,0c.5-.9.7-1.4.9-1.9.2-.4.4-.9.6-1.3l1.5.6Z"/>
            <path d="M1474.2,975.8h-1.4v-11.7c-.3.7-.7,1.4-2,3.5-.2-.5-.5-1-.9-1.4,1.5-2.1,3.2-5.6,4.4-9.3l1.4.5c-.3.9-.9,2.5-1.5,3.9v14.5ZM1486.7,957.7v6.3h-3.9v2.3h6v1.3h-5.4c1.3,1.7,2.5,3.2,5.7,5-.4.4-.7.9-1,1.3-2.5-1.5-3.8-2.8-5.5-5.1v7h-1.4v-7.1c-1.5,1.9-3.2,3.7-5.2,5.2-.2-.4-.6-.9-1-1.2,1.6-.9,3.5-2.6,5.4-5h-5.2v-1.3h6v-2.3h-4.3v-6.3h9.6ZM1478.5,959v3.7h6.8v-3.7h-6.8Z"/>
            <path d="M1492.1,961.9c1.3-.2,7.1-1.2,8.3-1.3,1.1-.1,2-.3,2.8-.3,1.5,0,3.7.2,5,2.4.4.7.8,1.8.8,3.4,0,3.4-2,5-3.2,5.7-1.7,1-4.8,2-9.2,2.2,0-.4-.1-1.1-.4-1.6,4.5,0,11.3-.8,11.3-6.4s0-1.7-1-3.1c-.4-.6-1.2-1.4-3.3-1.4s-1.4,0-4.8.6c-.9.2-5.2,1.1-6.1,1.2l-.3-1.6Z"/>
            <path d="M1521.1,957.9c-.3.8-.7,2.1-1.2,3.4,1.4-.2,3.2-.5,4.7-1v1.4c-.9.3-1.9.5-5.1.9-2.3,6.8-2.4,6.9-4.8,12.3l-1.4-.7c2.4-4.7,3.4-7.6,4.7-11.4-1.1,0-2.1.1-2.8.1s-.7,0-.9,0v-1.4c.5,0,1.3.1,2.2.1s1.2,0,1.8,0c.5-1.5.9-3,1.2-4.1l1.6.5ZM1521.6,969.9c0,.9,0,2.3,1.4,2.9.8.3,2.6.4,4.1.4s1.6,0,3.9-.3v1.6c-1.2.1-2.4.2-3.6.2-5.6,0-7.2-1.2-7.2-4.8h1.4ZM1530.1,964.9c-1,0-1.7,0-2.4,0-1.7,0-3.7.1-5.5.4l-.2-1.3c2.8-.5,5.1-.5,6.5-.5s1.2,0,1.7,0v1.5Z"/>
            <path d="M1547.1,958.1c-.4,1-.8,2.1-1.2,3.3,4.8.3,6.5,3.7,6.5,6.8s-.8,3.3-1.9,4.4c-2.4,2.2-6.4,2.5-7.1,2.5,0-.4-.2-.9-.4-1.4,1.5,0,7.9-.4,7.9-5.8s-.2-2-.8-2.8c-.9-1.5-2.4-2.3-4.7-2.5-1.2,2.8-1.8,4.2-3.3,6.8.3.6.8,1,1.1,1.3l-1.1,1.1c0,0-.4-.4-.9-1.1-1.2,1.5-2.4,3-3.8,3s-2.7-1-2.7-3.7,2.3-5.4,3.2-6.2c-.6-2-.8-3.7-.9-4.3h1.5c0,1.1.2,2.1.6,3.6,2.1-1.1,3.4-1.3,5.1-1.5.4-1.1,1-3,1.2-3.8l1.6.5ZM1538.4,964.9c-1.9,1.9-2.3,3.7-2.3,4.8s.4,2.3,1.3,2.3,2.5-2.1,3-2.7c-.9-1.5-1.4-2.6-2-4.5ZM1541.2,968.2c.7-1.2,1.2-2.1,2.6-5.6-2.4.4-3.1.7-4.4,1.5.3,1.3.9,2.8,1.7,4.1Z"/>
            <path d="M1559.9,958.7c-.9,3.7-1.2,7.9-1.2,9.9s0,3.4.5,6l-1.5.4c-.3-1.8-.5-3.7-.5-6s.2-6.7,1.1-10.8l1.6.5ZM1563.4,969c0,1.9.4,3.4,6.1,3.4s2.5-.1,3.4-.3v1.6c-.8.1-1.6.2-2.9.2-6.6,0-8.1-1.6-8.1-4.9h1.4ZM1571.8,961.8c-.9-.1-1.5-.2-2.6-.2-2.4,0-4.2.2-6.3.7l-.2-1.4c1.2-.3,3.1-.6,6.6-.6s1.5,0,2.6,0v1.4Z"/>
            <path d="M1577.6,970.4c1.6,1.7,2.3,2.6,3.3,3.9l-1.3,1c-.9-1.3-1.7-2.5-3.1-4l1-.9Z"/>
            <path d="M1609.1,963.6v1.4h-7.9c-.2,3.1-.3,5.7-2.4,7.8-.4.4-2.2,2-5,2.8-.1-.5-.6-1.3-.8-1.6.7-.1,4.7-1.2,5.9-4.3.6-1.6.6-3.3.7-4.8h-8.7v-1.4h18.2ZM1605.3,958.7v1.4h-11.3v-1.4h11.3ZM1606.9,958c.6.6,1.3,1.3,1.8,1.8l-.8.7c-.5-.6-1.2-1.4-1.7-1.8l.8-.7ZM1608.3,956.5c.5.5,1.2,1.2,1.8,1.9l-.8.7c-.6-.6-1.2-1.4-1.7-1.9l.8-.7Z"/>
            <path d="M1629.8,965.4v1.5h-16.6v-1.5h16.6Z"/>
            <path d="M1648,960.5h.2c0-.1.9.8.9.8-.5.8-.7,1.3-.8,1.7-.3.8-1.5,3.4-3.3,5.6-2.7,3.5-7.3,6-9.8,6.8-.2-.4-.5-1-.9-1.4,1.3-.4,3.6-1.4,5-2.3,1.6-1,2.6-2,3.4-2.8-1.1-1-2.9-2.4-3.9-3l.9-1c.9.5,2.6,1.6,4,2.9,1.6-2,2-2.8,3.4-6h-6.5c-2.2,3.1-3.7,4.5-6.4,6.3-.2-.4-.7-1-1-1.3,1.4-.7,3.1-2,4.3-3.4,1.3-1.5,2.3-3,3.3-5.6l1.6.6c-.2.4-.5,1.2-1.1,2.3h6.7Z"/>
            <path d="M1662,973.4c2.1-.3,4.7-1.3,5.9-3,.8-1.1,1.1-2.5,1.1-3.9,0-3.9-2.2-6.1-6.3-6.2-.8,5.2-2.3,8.6-3.3,10.4-.7,1.3-1.6,2.6-2.9,2.6-1.8,0-3.3-2.5-3.3-5.7,0-5.6,4.4-8.6,9.3-8.6s8,1.9,8,7.6-2.7,6.9-7.7,8.4c-.2-.5-.5-1.2-.8-1.5ZM1654.6,967.4c0,2.2.7,4.2,2,4.2s1.6-1.6,2-2.5c1.3-2.8,2.2-5.8,2.6-8.8-4.6.5-6.6,3.9-6.6,7.1Z"/>
            <path d="M1684.3,960.5h8.4v1.3h-8.4v1.4h6v6.4h-6v1.4h7v1.2h-7v1.7h8.4v1.3h-18.2v-1.3h8.4v-1.7h-6.8v-1.2h6.8v-1.4h-6.1v-6.4h6.1v-1.4h-8.5v-1.3h8.5v-1.3c-3.2.2-4,.3-6.7.3,0-.4-.3-.9-.7-1.4,2.2,0,8.7,0,14.4-1.2l.8,1.3c-1.9.4-3.1.5-6.4.8v1.4ZM1678.2,964.4v1.4h4.7v-1.4h-4.7ZM1678.2,966.9v1.4h4.7v-1.4h-4.7ZM1684.3,964.4v1.4h4.6v-1.4h-4.6ZM1684.3,966.9v1.4h4.6v-1.4h-4.6Z"/>
            <path d="M1700.2,956.6v3.9h1.8c0,0,.9.7.9.7-.2.3-.3.5-.5.8-.4.8-1,1.9-2.1,3.7l.8.9c.4-.3,1-1,1.6-1.7l1.1.9c-.7.7-1.3,1.2-1.8,1.7.3.3.8.8,1.3,1.2-.3.3-.6.7-.9,1.1-.7-.7-1.6-1.6-2.1-2.3v8.3h-1.3v-8.3c-.6.8-1.4,1.6-2.1,2.2-.2-.5-.4-1-.8-1.4,1.7-1.3,3.9-4.2,5-6.4h-4.5v-1.3h2.4v-3.9h1.3ZM1705,961.1h8.4v5.9h-4.7l-1.2,1.5h5.1c0-.1,1.1.8,1.1.8-.5.7-1.7,2.1-3.3,3.3,1,.5,2.4,1.1,4.7,1.7-.4.5-.7.9-.8,1.3-2-.6-3.2-1.1-5.1-2.2-1.6.8-2.4,1.3-5.9,2.2-.1-.3-.3-.9-.7-1.3,1.8-.3,3.9-.9,5.5-1.8-.9-.7-1.6-1.4-2.3-2.1-.6.6-1.5,1.3-2.6,2.1-.2-.4-.5-.8-.9-1.2,2.4-1.5,3.8-2.9,4.9-4.4h-2v-5.9ZM1707.3,957.1l-.7,1.2h8.2v1.3h-8.8c-.8,1.3-1.3,1.9-2,2.8-.1-.4-.4-1-.8-1.4,1.3-1.4,2.2-3.2,2.8-4.4l1.3.5ZM1706.4,962.3v1.3h5.6v-1.3h-5.6ZM1706.4,964.6v1.3h5.6v-1.3h-5.6ZM1706.6,969.7c.7.8,1.5,1.5,2.6,2.2,1.2-.8,2-1.6,2.5-2.2h-5.1Z"/>
            <path d="M1730.3,962.9l-1.3.5c0-.2-.2-.6-.4-1.1-1.7.5-3.6,1.3-4.6,1.7.8,2.5,1.4,4.1,4,10.8l-1.5.6c-.9-2.4-2.4-6.3-2.7-7.2-.3-.9-.7-2-1.3-3.6-1.6.6-3.4,1.4-4,1.7l-.6-1.5c1-.3,2.8-.9,4.1-1.4-.2-.6-1.2-3.3-1.4-3.9l1.6-.5c.2.7.3,1.1.4,1.5.2.5.4,1.1.8,2.3.7-.2,3.9-1.3,4.6-1.6-.6-1.4-1-2.3-1.6-3.3l1.3-.5c.4.8,1.1,2.2,1.7,3.5.7-.1,1.2-.1,1.6-.1,3.1,0,4.9,1.9,4.9,4.1s-.5,4-4.3,4-3.6-.6-5.2-1.9c.3-.3.7-.8.9-1,1.1.8,2.5,1.6,4.2,1.6s2.8-1.4,2.8-2.8-.3-1.5-.9-2c-.6-.6-1.6-.8-2.6-.8s-.6,0-1,0l.4.9Z"/>
            <path d="M1757.9,958.1v1.4h-6.7l-1.4,2.1v14.1h-1.5v-12.2c-1.3,1.7-3,3.3-4.3,4.4-.7.7-1.6,1.3-3.2,2.4-.3-.4-.7-.9-1.1-1.3,1.6-1,3.6-2.2,6.3-5.1,1.5-1.7,2.2-2.6,3.3-4.5h-9.4v-1.4h17.9ZM1752.1,964c2.6,2.8,4.1,3.7,6.2,5-.4.4-.8.9-1,1.3-2.6-1.6-4.5-3.4-6.3-5.2l1.1-1.1Z"/>
            <path d="M1770.8,963.9h-3.3v.4c1,.7,1.4.8,3.1,1.5-.3.4-.5.8-.6,1.1-.8-.3-1.6-.7-2.5-1.2v2.4h-1.3v-3c-1.5,1.3-2.1,1.8-3.8,2.8-.2-.3-.5-.7-.9-1,1.9-.8,3.3-2,4.2-2.9h-3v-3.3h3.6v-1h-4.5v-1.1h4.5v-1.5h1.3v1.5h4.1v1.1h-4.1v1h3.3v3.3ZM1778.8,968.7v1.2h-7v1.5h5.2v1.2h-5.2v1.3h8.5v1.2h-18.6v-1.2h3.9v-2.8h1.3v2.8h3.5v-4h-7.5v-1.2h15.9ZM1763.9,961.5v1.5h2.3v-1.5h-2.3ZM1767.5,961.5v1.5h2v-1.5h-2ZM1780.2,959.8v1.2h-1.4c-.6,1.7-.9,2.7-2,3.9.8.6,1.7,1.3,3.9,2-.4.4-.7.8-.9,1.2-1.9-.8-2.8-1.3-4-2.2-1.8,1.3-2.2,1.5-4.3,2.3-.2-.4-.4-.8-.8-1.2,1.9-.5,3-1.1,4.1-2-.9-1-1-1.1-1.9-2.8-.3.4-.7.9-1,1.3-.2-.4-.6-.8-1-1.1,1.8-1.8,2.5-3.3,3.4-5.5l1.3.4c-.3.8-.7,1.7-1.1,2.6h5.7ZM1773.7,960.9c.5,1.4,1.2,2.4,2,3.2.7-.9,1.3-1.8,1.6-3.2h-3.6Z"/>
            <path d="M1794.1,957.2l-.3.4c2.1,2.8,5,5.2,9,6.6-.4.5-.7,1-1,1.5-4.7-2.3-6.6-4.1-9-7.1-1.7,2.1-4.7,5.1-8.7,7.3-.2-.5-.4-.9-.8-1.5,3.1-1.3,6.4-4,9.2-8l1.5.6ZM1799.5,967.7v8h-1.5v-1.3h-10.1v1.3h-1.5v-8h13ZM1798,963.8v1.3h-10.1v-1.3h10.1ZM1787.9,969.1v4h10.1v-4h-10.1Z"/>
            <path d="M1393.7,993.8c-.3.5-.8,1.5-1.5,2.5,2.2-.1,3.2-.3,5.5-.8v1.4c-2.9.4-4.2.5-6.1.6-.5.8-1.1,1.6-1.9,2.6,1.1-.4,1.7-.4,2.2-.4,1.2,0,1.7.5,2,.7.5.5.5.9.6,1.9.6-.2,3.5-1.2,4-1.4.6-.2,1.3-.5,2-.8l.5,1.5c-1.7.3-2.5.6-6.5,2,0,1.1,0,2.5,0,3h-1.4v-2.5c-1.5.7-4.2,2-4.2,3.3s2.9,1.9,5.1,1.9,4-.1,5.3-.4v1.5c-2.3.3-4.7.3-5,.3-1,0-2.8,0-4.5-.7-1.7-.6-2.2-1.7-2.2-2.6,0-2.2,2.8-3.5,5.6-4.7,0-1,0-2.1-1.6-2.1s-3,1-6.1,4.5l-1.1-1.1c1.4-1.2,3-3,3.6-3.7.5-.6,1-1.3,2-2.8-1.7.1-3.1.2-4.1.1v-1.4c.7,0,1.6.1,2.7.1s1.1,0,2.1,0c.5-.9.7-1.4.9-1.9.2-.4.4-.9.6-1.3l1.5.6Z"/>
            <path d="M1410.2,993.4l1.1,1.1c-.3.5-.7,1.5-2.4,5.4.1.2,2.2,3.4,2.2,5.6s-.9,2.6-3.5,2.8c-.1-.5-.2-1.1-.6-1.6h1.2c1,0,1.4-.5,1.4-1.3,0-1.7-2-5.1-2.2-5.3.6-1.3,1.7-4.2,2-5.2h-3.2v16.9h-1.3v-18.2h5.3ZM1417.6,993.1v3.6h5.1v1.3h-6.6c0,1,0,2.4-.1,3.7h5.6c0,.5-.3,5.7-.4,6.8-.3,2.4-.6,2.6-3.2,2.9,0-.4-.3-1.1-.7-1.6h1.6c.4,0,.6,0,.7-.5.3-1,.4-5.6.4-6.3h-4.2c-.8,5.5-3.7,7.4-5.7,8.6-.2-.4-.5-1-1-1.4,2.3-.9,3.7-2.8,4.2-3.9,1.3-2.6,1.3-5.9,1.3-8.2h-3.3v-1.3h4.8v-3.6h1.4Z"/>
            <path d="M1438.1,995.8c-1.5,1.2-5.2,3.8-8.3,5.3-1,.5-1,.5-1,.8s.2.5.8.8c.8.5,3.1,2.1,5.4,4.1,1.3,1.1,2.5,2.3,3.8,3.7l-1.3,1.1c-3.2-3.5-3.4-3.8-6.1-6-1-.9-2.2-1.7-3.5-2.6-.4-.3-.8-.6-.8-1,0-.7.4-.9.7-1.1.2-.1,2.2-1.2,4.8-2.9,1.9-1.3,3-2.2,4.6-3.4l1,1.2ZM1440.7,997.1c-.6-.8-1.4-1.7-2-2.3l.8-.7c.8.7,1.5,1.5,2.1,2.2l-.9.8ZM1441.6,992.5c.7.6,1.5,1.4,2.1,2.2l-.9.8c-.6-.8-1.3-1.6-2-2.3l.8-.7Z"/>
            <path d="M1448.7,1011.4c-1.3,0-2.5-.9-2.5-2.5s1-2.5,2.5-2.5,2.5.9,2.5,2.5-1.5,2.5-2.5,2.5ZM1448.7,1010.4c1.1,0,1.5-.8,1.5-1.5,0-1.1-.9-1.5-1.5-1.5-1.2,0-1.5.9-1.5,1.5,0,1,.7,1.5,1.5,1.5Z"/>
          </g>
          <g>
            <path class="cls-3" d="M1429.8,899.2v7.7h-16.3c-.3,13.9-5.6,19.5-18.9,23.6-.6-2.7-1.7-5.3-4.5-7.9,14.3-1.7,14.6-10.5,14.7-15.7h-17v-7.7h42ZM1425,895.7c-.9-1.3-1.9-2.5-2.9-3.6v3.8h-27.7v-7.7h27l1.4-1.2c2,1.7,3.8,3.6,5.5,5.8l-3.2,2.9ZM1426.7,883.6c2,1.5,3.9,3.6,5.8,5.6l-3.4,3c-1.7-2-3.5-3.9-5.6-5.9l3.2-2.7Z"/>
            <path class="cls-3" d="M1472.7,903.6v7.5h-37.9v-7.5h37.9Z"/>
            <path class="cls-3" d="M1502.3,888.8c-.5,1.1-1.1,2.2-1.7,3.3h10.7l.7-.3,5.1,5.7c-.6.8-.9,1.6-1.2,2.3-6.9,18.5-17.9,26.1-32.6,29.7-.8-2.6-1.7-4.8-4.2-7.4,5.1-1.2,11.4-2.9,17.4-7.7-1.8-1.8-1.9-1.8-6.9-5.8l4.8-5c3.3,1.9,3.7,2.2,7.5,5,2.4-3,3.8-6,5-9h-10.8c-6.2,8.4-11.7,11.6-14.8,13.4-1-2.2-2.3-4.7-4.8-6.7,9.3-4.9,14-12.6,17.8-20l8,2.4Z"/>
            <path class="cls-3" d="M1541.8,913.4c-1,2.4-4.8,11.3-10.9,11.3s-9-7.7-9-14c0-9.8,6.7-21,22.5-21s19.6,16.7,19.6,17.9c0,4-.8,11.2-8.9,16.3-2.2,1.4-5.1,2.8-11.1,4.1-.6-2.6-1.8-5.5-3.3-7.6,8.8-.8,11.9-4.4,13-6,1.4-2.1,2.2-4.5,2.2-7s-.3-4.2-1.3-6c-1.1-1.8-3.3-4.1-7.9-5-1.1,6.2-2.2,10.6-4.8,17ZM1530.6,903.7c-1,2.1-1.5,4.4-1.5,6.7s.6,6.1,2.7,6.1,4.4-4.3,7.5-19.6c-3.8,1.2-6.8,3-8.7,6.8Z"/>
            <path class="cls-3" d="M1607.2,891.5c-3.5,2.5-8.4,5.5-13,8l.5.5-.6.7h14.3l.8-.2,4.5,4.8c-2.4,2.5-7.2,7.8-13,12.7-1.4-1.7-2.8-3.3-4.3-4.9,2.6-2.3,5.4-4.9,6.9-6.4h-9.5v16.9c0,3.4-1,5.7-9.4,5.7-.4-2.1-.9-4.1-1.9-5.9h3.8c.7,0,.8-.3.8-.7v-9.9c-3.4,3.7-8,7.6-15.8,11.8-1.2-2.3-2.7-4.3-4.5-6.1,7.3-3,12.9-7.2,17.2-11.8h-14.4v-6h15.4c-1.7-1.2-2.5-1.7-3.4-2.3-.8-.5-1.7-1-3.8-2.3l3.1-3.6h-7.3v-6.1h29.3c0-.1,4.2,5.1,4.2,5.1ZM1583.8,892.5c1.9,1,3.6,2,4.9,3,1.8-.8,3.3-1.8,5-3h-9.9Z"/>
            <path class="cls-3" d="M1623.8,888.3c7.2,0,19.8-1,30.3-2.9l3.3,6.2c-2.8.4-8.6,1.1-12.2,1.2l-.2,2.2h14.5v5.8h-15.2l-.4,2.5h12.4v25.7h-7.4v-1.7h-13.9v1.9h-7v-25.8h9l.2-2.5h-10.5c0,14.8-1.8,20.8-6.2,27.7-1.5-2.2-3.4-4.2-5.1-5.6,4.6-8.1,4.8-13.9,4.7-35.3l3.9.8ZM1638,893.2c-3.1.2-8.1.3-11.2.3v1.5h10.9l.3-1.8ZM1635,908.2v1.6h13.9v-1.6h-13.9ZM1635,914.5v1.6h13.9v-1.6h-13.9ZM1635,920.7v1.6h13.9v-1.6h-13.9Z"/>
            <path class="cls-3" d="M1669.4,891.6c3.9.4,5.9.6,10.3.6,1.4-2.9,2-4.3,2.9-6.9l7.9,2.9c-.7,1.1-1.3,2.2-2.2,3.5,4.5-.6,5.1-.8,9.2-1.8l.2,7.4c-4.8.8-11.6,1.3-14.1,1.5-.5.8-1.2,1.7-1.8,2.6,1.5-.7,2.6-.9,4-.9,3.9,0,5,2.9,5.7,4.6,2.7-.9,3.9-1.2,4.9-1.6.9-.3,1.6-.5,2.5-.8.9-.3,1.9-.7,4.3-1.4l2.1,7.2c-8.2,2.2-9.8,2.6-13.4,3.7v5.9h-7.6c0-1.1,0-2.1,0-3.3-3.4,1.7-4.8,2.4-4.8,3.9s1.5,2,1.9,2.1c1.9.6,4.7.6,7.1.6,5.3,0,7.7-.3,12.5-1.1l.2,7.7c-3.8.5-6,.6-9,.6-5.1,0-12.4,0-16.8-3-1.6-1.2-3.5-3.3-3.5-6.1,0-6,6-8.8,12.3-11.9,0-1.1-.9-1.7-1.7-1.7-2.6,0-6.5,2.3-9.8,6.2-.5.6-1.1,1.2-3.5,3.6l-5-5.2c4.4-3.5,7.1-6.5,11-11.5-3.1,0-4.5,0-6-.2v-7.3Z"/>
            <path class="cls-3" d="M1720.3,885.7v8.1h3.1v6.7h-3.1v4.2c1.2-.2,2.2-.5,3.2-.8v6.1c-1,.4-2.2.7-3.2,1v11.5c0,2.6,0,6.7-9,6.7-.2-2.2-.9-4.2-1.5-6.2h2.9c.8,0,1.2-.2,1.2-.7v-9.5c-1.2.3-2.3.7-3.4,1l-1.4-6.4c1.6-.2,3.2-.7,4.8-1v-5.9h-3.6v-6.7h3.6v-8.1h6.4ZM1736.9,885.9c0,18.2-.3,21.3-.4,24.1-.6,13-7.4,16.9-11.7,19.5-1.1-2-2.2-3.7-3.8-5.4,3.8-2.1,5.7-3.8,7.9-7.2-2,.6-3.8,1-5.9,1.5l-1.2-6.1c2.7-.3,5.4-.6,8.3-1.1,0-.8.2-1.7.3-2.7h-5.4v-5.6h5.5v-2.6h-6v-6h6v-8.4h6.3ZM1745.4,885.8v8.4h7.3v5.9h-7.3v2.9h7v5.8h-7v4.1h8v6.1h-8v10.1h-6.4v-43.2h6.4Z"/>
            <path class="cls-3" d="M1790.3,886.7l-.5.9c3.7,4.5,7.6,7.5,13.2,10.8-1.6,1.7-3.2,3.6-4.3,5.9-1-.7-2-1.3-3-2.1v2.5h-5.8v2.7h9.6v6h-9.6v3.9l4.6-3.4c2.3,2.9,3.7,4.6,8.4,8.8-1.8,1.4-3.3,2.9-4.8,4.7-3.1-2.6-4.8-4.6-8.2-9.1v5c0,5.6-3.6,6.1-9.3,6.1-.3-1.8-1.1-4-2-5.8h3.7c.5,0,1-.2,1-.9v-9.5h-8.4c.1,1.3.1,2.5.1,3.8.7-1,1.5-2.1,2.3-3.1l4.9,3.6c-3,4.4-4.4,6-8,9.5-1.1-1.3-3-2.9-4.7-4.1l1.2-1c-1.8.3-3.4.4-5,.4-.1-1.9-.4-3.5-1.1-5.1v11.9h-6v-42.5h12.4l.4-.3,4.4,4.5c-1.2,2.2-2.3,4.5-3.6,7,3.8-3.2,8.9-9.9,10.8-12.6l7.1,1.5ZM1764.7,892.3v7.9c1.1-2.5,2.4-5.2,3.4-7.9h-3.4ZM1767.1,915.6c.7,0,1-.3,1-1.3,0-1.8-1.4-5.5-3.5-9.1v10.4h2.4ZM1770.1,902.3c2.6,4.8,3,5.6,4,8.4v-3.3h9.2v-2.7h-6.7v-1.9c-.7.8-1.5,1.3-2.3,1.9-.9-1.6-1.9-3.1-3.2-4.5l-1.1,2.1ZM1791.7,899c-1.6-1.2-3.4-3-5.8-6-2,2.5-3.2,3.8-5.3,6h11.1Z"/>
          </g>
        </g>
        <g>
          <g>
            <path d="M118.1,963.6v1.4h-7.9c-.2,3.1-.3,5.7-2.4,7.8-.4.4-2.2,2-5,2.8-.1-.5-.6-1.3-.8-1.6.7-.1,4.7-1.2,5.9-4.3.6-1.6.6-3.3.7-4.8h-8.7v-1.4h18.2ZM114.3,958.7v1.4h-11.3v-1.4h11.3ZM115.9,958c.6.6,1.3,1.3,1.8,1.8l-.8.7c-.5-.6-1.2-1.4-1.7-1.8l.8-.7ZM117.4,956.5c.5.5,1.2,1.2,1.8,1.9l-.8.7c-.6-.6-1.2-1.4-1.7-1.9l.8-.7Z"/>
            <path d="M138.8,965.4v1.5h-16.6v-1.5h16.6Z"/>
            <path d="M157,960.5h.2c0-.1.9.8.9.8-.5.8-.7,1.3-.8,1.7-.3.8-1.5,3.4-3.3,5.6-2.7,3.5-7.3,6-9.8,6.8-.2-.4-.5-1-.9-1.4,1.3-.4,3.6-1.4,5-2.3,1.6-1,2.6-2,3.4-2.8-1.1-1-2.9-2.4-3.9-3l.9-1c.9.5,2.6,1.6,4,2.9,1.6-2,2-2.8,3.4-6h-6.5c-2.2,3.1-3.7,4.5-6.4,6.3-.2-.4-.7-1-1-1.3,1.4-.7,3.1-2,4.3-3.4,1.3-1.5,2.3-3,3.3-5.6l1.6.6c-.2.4-.5,1.2-1.1,2.3h6.7Z"/>
            <path d="M171,973.4c2.1-.3,4.7-1.3,5.9-3,.8-1.1,1.1-2.5,1.1-3.9,0-3.9-2.2-6.1-6.3-6.2-.8,5.2-2.3,8.6-3.3,10.4-.7,1.3-1.6,2.6-2.9,2.6-1.8,0-3.3-2.5-3.3-5.7,0-5.6,4.4-8.6,9.3-8.6s8,1.9,8,7.6-2.7,6.9-7.7,8.4c-.2-.5-.5-1.2-.8-1.5ZM163.6,967.4c0,2.2.7,4.2,2,4.2s1.6-1.6,2-2.5c1.3-2.8,2.2-5.8,2.6-8.8-4.6.5-6.6,3.9-6.6,7.1Z"/>
            <path d="M187.1,975.8h-1.4v-11.7c-.3.7-.7,1.4-2,3.5-.2-.5-.5-1-.9-1.4,1.5-2.1,3.2-5.6,4.4-9.3l1.4.5c-.3.9-.9,2.5-1.5,3.9v14.5ZM199.6,957.7v6.3h-3.9v2.3h6v1.3h-5.4c1.3,1.7,2.5,3.2,5.7,5-.4.4-.7.9-1,1.3-2.5-1.5-3.8-2.8-5.5-5.1v7h-1.4v-7.1c-1.5,1.9-3.2,3.7-5.2,5.2-.2-.4-.6-.9-1-1.2,1.6-.9,3.5-2.6,5.4-5h-5.2v-1.3h6v-2.3h-4.3v-6.3h9.6ZM191.4,959v3.7h6.8v-3.7h-6.8Z"/>
            <path d="M212.1,960.3v1.3h-6.8v-1.3h6.8ZM211.2,968.8v6.4h-1.3v-1h-2.5v1.3h-1.4v-6.8h5.2ZM211.2,957.6v1.3h-5.1v-1.3h5.1ZM206.1,964.4v-1.3h5.1v1.3h-5.1ZM211.2,965.8v1.2h-5.1v-1.2h5.1ZM207.4,970v2.9h2.5v-2.9h-2.5ZM220.8,956.7v1.3h3.2v1.2h-3.2v1.1h-1.3v-1.1h-3.1v1.2h-1.1l.4.2c-.2.4-.5.9-.8,1.2h3.1c.3-.5.5-1,.7-1.5l1.2.4c-.2.4-.4.8-.6,1.1h4.3v1.1h-4.6v1.1h3.7v.9h-3.7v1h3.7v.9h-3.7v1.1h4.7v1h-10.3v-5c-.6.7-1.1,1.3-1.8,2-.2-.4-.5-.7-.9-1,1.2-1.1,2.1-2.1,3.8-4.9l.5.3v-1h-3v-1.2h3v-1.3h1.3v1.3h3.1v-1.3h1.3ZM212.5,971.1v-1.1h9.7c0-.1.8.8.8.8-1.6,1.5-2.5,2.1-3.5,2.6,1,.4,2.1.7,4.7,1-.3.5-.5,1-.5,1.4-2.6-.4-4.1-.9-5.5-1.6-2.2.9-4.1,1.4-5.6,1.6-.1-.5-.3-.9-.6-1.3,1.9-.2,3.4-.6,4.8-1.1-.9-.6-1.6-1.1-2.6-2.2h-1.8ZM214.8,962.9v1.1h3v-1.1h-3ZM214.8,964.8v1h3v-1h-3ZM214.8,966.8v1.1h3v-1.1h-3ZM215.8,971.1c.7.6,1.5,1.3,2.3,1.6,1-.5,1.9-1.1,2.5-1.6h-4.9Z"/>
            <path d="M239.3,962.9l-1.3.5c0-.2-.2-.6-.4-1.1-1.7.5-3.6,1.3-4.6,1.7.8,2.5,1.4,4.1,4,10.8l-1.5.6c-.9-2.4-2.4-6.3-2.7-7.2-.3-.9-.7-2-1.3-3.6-1.6.6-3.4,1.4-4,1.7l-.6-1.5c1-.3,2.8-.9,4.1-1.4-.2-.6-1.2-3.3-1.4-3.9l1.6-.5c.2.7.3,1.1.4,1.5.2.5.4,1.1.8,2.3.7-.2,3.9-1.3,4.6-1.6-.6-1.4-1-2.3-1.6-3.3l1.3-.5c.4.8,1.1,2.2,1.7,3.5.7-.1,1.2-.1,1.6-.1,3.1,0,4.9,1.9,4.9,4.1s-.5,4-4.3,4-3.6-.6-5.2-1.9c.3-.3.7-.8.9-1,1.1.8,2.5,1.6,4.2,1.6s2.8-1.4,2.8-2.8-.3-1.5-.9-2c-.6-.6-1.6-.8-2.6-.8s-.6,0-1,0l.4.9Z"/>
            <path d="M263.5,959l1.1,1.2c-.7.6-1.8,1.7-2.6,2.3-1,.9-2.2,2-4.1,3.5l-.9-1.1c-.2,5.1-.7,8.2-6.6,10.4-.2-.4-.6-1.2-.9-1.5,1.2-.3,3.7-1.3,4.8-3.3.9-1.8.9-4.8,1-7h1.7v1.3c1.8-1.4,3.3-2.7,4.8-4.2h-13.3v-1.5h15Z"/>
            <path d="M280.6,961.1h.2c0-.1,1.1,1,1.1,1-.3.5-.5.9-.6,1.2-.9,2.2-2.4,6-6,8.7-2.2,1.6-3.4,2-6.3,3.1-.2-.5-.6-1.2-.9-1.5,1.9-.3,5.4-1.7,7.7-4.1,2-2.1,3-3.9,4.1-7.1h-6.8c-1.6,2.5-3.2,4.4-5.1,5.9-.2-.3-.8-.9-1.2-1.1,3.4-2.6,5.4-6.1,6.7-9.6l1.7.6c-.3.7-.8,1.6-1.5,2.9h6.8Z"/>
            <path d="M291.8,957.7v5.3c2.2-.3,3.4-.5,4.6-.7,1.2-.1,2.4-.3,3.9-.6l.4-.2,1.2,1.3c-1,1.1-1.5,1.7-2,2.2-1.1,1.3-2.4,2.6-3.8,3.8l-1-1.2c2.2-1.9,3.3-3.1,4.5-4.6-3,.4-5.4.8-7.8,1.2v6.8c0,1,0,1.6,1.4,1.8.9.1,3.2.1,4.8.1s2.5,0,3.7-.1v1.6c-.6,0-2,0-2.7,0-7.3,0-8.9-.3-8.8-2.8v-7.1c-1.8.3-3.6.5-4.9.8l-.3-1.5c1.4-.2,3.3-.5,5.2-.7v-5.6h1.7Z"/>
            <path d="M318.6,959.4l1.1,1.2c-.3.4-1.3,2.3-1.5,2.6-.6,1.1-1,1.6-2.2,3.3,0,.1,3.2,3.1,3.6,3.6,1.1,1.2,1.7,2,2.9,3.5l-1.4,1c-1.6-2.4-4.3-5.2-6-6.9-1.9,2.2-3.8,4.3-8.8,6.9-.2-.5-.8-1.2-1.1-1.5,2.8-1.1,5.3-2.8,7.5-5,1.6-1.7,3.3-3.8,5.1-7.2h-10.6v-1.4h11.4Z"/>
            <path d="M332.8,957.1v2.8h4.5v1.2h-4.5v2.6h5.1v1.2h-5.1v2.4h4.2v5.3c0,1.3-.7,1.4-2.8,1.7,0-.4-.2-.9-.5-1.5h1.7c.2,0,.3-.1.3-.3v-3.9h-2.8v7.1h-1.3v-7.1h-2.6v6h-1.4v-7.2h4v-2.4h-5.5v-1.2h5.5v-2.6h-2.9c-.3.6-.7,1.3-1.1,1.9-.4-.3-.7-.5-1.3-.7.6-.9,1.5-2.2,2.3-5l1.3.5c-.2.7-.5,1.4-.8,2h2.4v-2.8h1.3ZM340.1,958.9v12.1h-1.3v-12.1h1.3ZM343.9,957.1v16.7c0,1.5-.8,1.6-3.4,1.8,0-.4-.2-1.1-.5-1.6h2.2c.2,0,.3-.1.3-.3v-16.6h1.3Z"/>
            <path d="M351.6,975.5h-1.3v-8.9c-.4.5-1,1.2-1.7,1.8-.3-.5-.5-1-.8-1.3,1.6-1.4,2.2-2.2,4.5-5.5l1,.9c-.3.5-1,1.5-1.6,2.4v10.7ZM352.7,958c-1.3,1.3-2.5,2.4-4,3.4-.2-.4-.5-.8-.9-1.1,1.3-.8,2.3-1.5,3.9-3.2l.9,1ZM360,959.3v1.3h-2.2v2.7h2.6v1.3h-2.6v2.7h2.4v1.3h-2.4v3.4c.6-.1,1.7-.4,2.7-.6v1.3c-1.1.3-1.6.5-4.8,1.1-.7.1-1.6.3-3.2.6l-.3-1.6c.5,0,1.1-.1,1.5-.1v-6.3h1.4v6.1c.5,0,1-.1,1.4-.2v-7.6h-3v-1.3h3v-2.7h-1.5c-.2.5-.5,1-.9,1.6-.4-.4-.7-.6-1.2-.8.7-1.2,1.3-2.2,2.2-4.8l1.3.4c-.2.6-.5,1.5-.9,2.3h4.5ZM366.1,958.1v13.1c0,1.4-.2,1.6-2.6,1.9,0-.4,0-1-.3-1.5h1.2c.2,0,.3,0,.3-.3v-11.9h-2.1v16.2h-1.4v-17.6h4.9Z"/>
            <path d="M379.8,957.8c-.3.5-.8,1.5-1.5,2.5,2.2-.1,3.2-.3,5.5-.8v1.4c-2.9.4-4.2.5-6.1.6-.5.8-1.1,1.6-1.9,2.6,1.1-.4,1.7-.4,2.2-.4,1.2,0,1.7.5,2,.7.5.5.5.9.6,1.9.6-.2,3.5-1.2,4-1.4.6-.2,1.3-.5,2-.8l.5,1.5c-1.7.3-2.5.6-6.5,2,0,1.1,0,2.5,0,3h-1.4v-2.5c-1.5.7-4.2,2-4.2,3.3s2.9,1.9,5.1,1.9,4-.1,5.3-.4v1.5c-2.3.3-4.7.3-5,.3-1,0-2.8,0-4.5-.7-1.7-.6-2.2-1.7-2.2-2.6,0-2.2,2.8-3.5,5.6-4.7,0-1,0-2.1-1.6-2.1s-3,1-6.1,4.5l-1.1-1.1c1.4-1.2,3-3,3.6-3.7.5-.6,1-1.3,2-2.8-1.7.1-3.1.2-4.1.1v-1.4c.7,0,1.6.1,2.7.1s1.1,0,2.1,0c.5-.9.7-1.4.9-1.9.2-.4.4-.9.6-1.3l1.5.6Z"/>
            <path d="M394.5,964.7v6.9c1,.8,2.6,2.2,6.3,2.2h7c.7,0,.9,0,1.6,0-.3.5-.5,1.1-.5,1.5-9,0-9.4,0-10.9-.3-1.7-.4-2.5-.8-3.8-1.8-.7.6-1,.8-3.2,2.6l-.9-1.5c.8-.4,2.1-1.3,3-1.9v-6.3h-2.5v-1.3h3.9ZM392.2,957.3c1.1.6,2.4,1.5,3.1,2.2l-.9,1.1c-.9-.9-2.4-1.9-3-2.2l.8-1.1ZM406.3,957.6l.7,1.1c-.6.4-2.8,1.9-3.7,2.4l.7.5-.5.5h4.1v8.9c0,1.2-.3,1.4-2.7,1.7,0-.4-.2-1-.5-1.5h1.4c.2,0,.3,0,.3-.3v-1.9h-3.4v3.2h-1.3v-3.2h-2.9v3.4h-1.4v-10.3h5.2c-1-.7-2-1.3-2.9-1.9l.8-1c.5.3,1.3.7,2,1.1.7-.4,1.3-1,2-1.4h-7.7v-1.3h9.7ZM398.6,963.4v1.6h2.9v-1.6h-2.9ZM398.6,966.2v1.8h2.9v-1.8h-2.9ZM402.9,963.4v1.6h3.4v-1.6h-3.4ZM402.9,966.2v1.8h3.4v-1.8h-3.4Z"/>
            <path d="M416.2,958.3c-.3,2.4-.7,7.9-.7,10.9s0,3,1.2,3.8c.7.4,1.7.5,2.3.5,2.7,0,6-1.8,7.8-6.2.4.4,1.1.8,1.4,1-1.5,2.4-3.9,6.5-9.4,6.5s-3.2-.8-3.9-1.6c-.8-.9-.9-2.3-.9-4s0-2.3,0-3.4c0-2.5.1-5.1.2-7.6h1.8ZM421.6,959c.7.5,1.6,1.3,2.2,2l-.9.9c-.7-.8-1.5-1.5-2.1-2l.8-.8ZM424.9,960.1c-.7-.7-1.5-1.4-2.1-2l.9-.8c.4.3,1.5,1.2,2.1,2l-.9.8Z"/>
            <path d="M449.5,960.3c-1.2.1-3,.2-4.8.4-2.6,1.1-5.2,4.2-5.2,7.1s.1,1.7.7,2.6c1.2,2,3.4,2.5,6.3,2.7v1.7c-2-.2-8.4-1-8.4-6.7s.4-4.4,4.1-7.2c-4.7.5-5.8.6-10.4,1.2v-1.6c3.2-.3,7.3-.6,8-.7,5.1-.5,7.7-.8,9.7-1v1.4Z"/>
            <path d="M453.7,970.4c1.6,1.7,2.3,2.6,3.3,3.9l-1.3,1c-.9-1.3-1.7-2.5-3.1-4l1-.9Z"/>
            <path d="M485.3,958.1v1.4h-6.7l-1.4,2.1v14.1h-1.5v-12.2c-1.3,1.7-3,3.3-4.3,4.4-.7.7-1.6,1.3-3.2,2.4-.3-.4-.7-.9-1.1-1.3,1.6-1,3.6-2.2,6.3-5.1,1.5-1.7,2.2-2.6,3.3-4.5h-9.4v-1.4h17.9ZM479.5,964c2.6,2.8,4.1,3.7,6.2,5-.4.4-.8.9-1,1.3-2.6-1.6-4.5-3.4-6.3-5.2l1.1-1.1Z"/>
            <path d="M506.9,958.1v1.3h-7.7v5.9h6.7v1.3h-6.7v6.9h8.4v1.3h-18.3v-1.3h2.8v-10.1h1.4v10.1h4.3v-14.1h-7.6v-1.3h16.8Z"/>
            <path d="M518.9,957.9c-.2.6-.6,1.7-1.1,3,1.4-.2,2.5-.5,3.1-.6v1.4c-.9.2-2.2.4-3.5.6-1.1,3.1-2.4,6.9-4.8,11l-1.3-.8c1.6-2.9,2.9-5.4,4.6-10.1-.7,0-1.4,0-2,0s-1,0-1.5,0v-1.4c.7.1,1.4.2,2.1.2s1.2,0,1.8-.1c.4-1.3.7-2.6,1-3.7l1.7.5ZM524.8,964.5c-.1.5-.2,1-.2,2.2s.1,3.3.1,3.9c1.6.6,3.1,1.4,4.5,2.2l-.8,1.3c-1.4-.9-2.1-1.4-3.7-2.2,0,1.6-.2,2.5-1.6,3-.7.3-1.4.3-1.9.3-3.5,0-4.3-1.9-4.3-2.8s.1-1.3,1.1-1.9c.5-.3,1.4-.6,2.6-.6s1.7.1,2.7.3c0-.7-.2-3.7-.2-4.3s0-1.1,0-1.6h1.5ZM521.1,974.1c.9,0,1.8-.3,2.1-1.1.1-.2.2-.5.2-1.6-1.3-.3-1.9-.4-2.6-.4-2.1,0-2.5,1.1-2.5,1.5,0,.9,1.5,1.6,2.8,1.6ZM528.5,964.1c-2.1-.8-3.5-1.4-6.1-2l.3-1.2c2.2.4,3.4.8,6.3,1.8l-.6,1.4Z"/>
            <path d="M114.8,995l1.1,1.2c-.7.6-1.8,1.7-2.6,2.3-1,.9-2.2,2-4.1,3.5l-.9-1.1c-.2,5.1-.7,8.2-6.6,10.4-.2-.4-.6-1.2-.9-1.5,1.2-.3,3.7-1.3,4.8-3.3.9-1.8.9-4.8,1-7h1.7v1.3c1.8-1.4,3.3-2.7,4.8-4.2h-13.3v-1.5h15Z"/>
            <path d="M131.9,997.1h.2c0-.1,1.1,1,1.1,1-.3.5-.5.9-.6,1.2-.9,2.2-2.4,6-6,8.7-2.2,1.6-3.4,2-6.3,3.1-.2-.5-.6-1.2-.9-1.5,1.9-.3,5.4-1.7,7.7-4.1,2-2.1,3-3.9,4.1-7.1h-6.8c-1.6,2.5-3.2,4.4-5.1,5.9-.2-.3-.8-.9-1.2-1.1,3.4-2.6,5.4-6.1,6.7-9.6l1.7.6c-.3.7-.8,1.6-1.5,2.9h6.8Z"/>
            <path d="M143.1,993.7v5.3c2.2-.3,3.4-.5,4.6-.7,1.2-.1,2.4-.3,3.9-.6l.4-.2,1.2,1.3c-1,1.1-1.5,1.7-2,2.2-1.1,1.3-2.4,2.6-3.8,3.8l-1-1.2c2.2-1.9,3.3-3.1,4.5-4.6-3,.4-5.4.8-7.8,1.2v6.8c0,1,0,1.6,1.4,1.8.9.1,3.2.1,4.8.1s2.5,0,3.7-.1v1.6c-.6,0-2,0-2.7,0-7.3,0-8.9-.3-8.8-2.8v-7.1c-1.8.3-3.6.5-4.9.8l-.3-1.5c1.4-.2,3.3-.5,5.2-.7v-5.6h1.7Z"/>
            <path d="M169.9,995.4l1.1,1.2c-.3.4-1.3,2.3-1.5,2.6-.6,1.1-1,1.6-2.2,3.3,0,.1,3.2,3.1,3.6,3.6,1.1,1.2,1.7,2,2.9,3.5l-1.4,1c-1.6-2.4-4.3-5.2-6-6.9-1.9,2.2-3.8,4.3-8.8,6.9-.2-.5-.8-1.2-1.1-1.5,2.8-1.1,5.3-2.8,7.5-5,1.6-1.7,3.3-3.8,5.1-7.2h-10.6v-1.4h11.4Z"/>
            <path d="M189.4,998.9l-1.3.5c0-.2-.2-.6-.4-1.1-1.7.5-3.6,1.3-4.6,1.7.8,2.5,1.4,4.1,4,10.8l-1.5.6c-.9-2.4-2.4-6.3-2.7-7.2-.3-.9-.7-2-1.3-3.6-1.6.6-3.4,1.4-4,1.7l-.6-1.5c1-.3,2.8-.9,4.1-1.4-.2-.6-1.2-3.3-1.4-3.9l1.6-.5c.2.7.3,1.1.4,1.5.2.5.4,1.1.8,2.3.7-.2,3.9-1.3,4.6-1.6-.6-1.4-1-2.3-1.6-3.3l1.3-.5c.4.8,1.1,2.2,1.7,3.5.7-.1,1.2-.1,1.6-.1,3.1,0,4.9,1.9,4.9,4.1s-.5,4-4.3,4-3.6-.6-5.2-1.9c.3-.3.7-.8.9-1,1.1.8,2.5,1.6,4.2,1.6s2.8-1.4,2.8-2.8-.3-1.5-.9-2c-.6-.6-1.6-.8-2.6-.8s-.6,0-1,0l.4.9Z"/>
            <path d="M202.9,992.9v4.5h2.2v1.3h-2.2v3.4c.8-.3,1.5-.6,2.2-.9v1.3c-.7.3-1.3.5-2.2.9v6.5c0,1.3-.5,1.5-2.8,1.7-.1-.6-.3-1-.6-1.5h1.7c.2,0,.3-.1.3-.3v-6c-.9.4-1.8.7-2.7,1.1l-.3-1.3c1-.3,2.1-.7,3-1.1v-3.9h-2.9v-1.3h2.9v-4.5h1.3ZM209.5,1009.5c-1.4.8-2.8,1.5-4.5,2.1-.3-.4-.5-.8-.9-1.2,1.5-.5,2.8-1,4.3-1.9l1,1ZM216,999.1v8.9h-10v-8.9h10ZM215.3,993.4v4.3h-8.7v-4.3h8.7ZM207.4,1000.2v1.3h7.2v-1.3h-7.2ZM207.4,1002.6v1.4h7.2v-1.4h-7.2ZM207.4,1005.2v1.6h7.2v-1.6h-7.2ZM207.9,994.6v2h6.1v-2h-6.1ZM213.2,1008.5c1.3.7,2.3,1.2,4.6,1.8-.3.4-.6.9-.8,1.3-2-.6-3-1.1-4.7-2l.8-1Z"/>
            <path d="M230.8,993.1v4h6.5v1.3h-6.5c0,1.3-.1,2.6-.2,3.7h8.5v1.3h-7.9c1.6,3.6,4.7,5.5,8,6.6-.4.4-.6.9-.9,1.4-2.5-1-6.2-2.8-8.3-7.2-.6,1.6-1.2,2.3-1.6,2.9-2.1,2.6-4.5,3.7-6.5,4.5-.2-.4-.5-.9-.9-1.3,3.5-1.2,6.3-2.6,7.8-6.8h-7.7v-1.3h8c.1-1.1.2-2.4.3-3.7h-4.6c-.5,1.1-1,2.1-1.4,2.9-.4-.3-.7-.5-1.3-.7,1-1.8,1.8-3.3,2.5-6.4l1.4.3c-.3.9-.5,1.7-.7,2.5h4.1v-4h1.4Z"/>
            <path d="M252.3,993.8c-.3.5-.8,1.5-1.5,2.5,2.2-.1,3.2-.3,5.5-.8v1.4c-2.9.4-4.2.5-6.1.6-.5.8-1.1,1.6-1.9,2.6,1.1-.4,1.7-.4,2.2-.4,1.2,0,1.7.5,2,.7.5.5.5.9.6,1.9.6-.2,3.5-1.2,4-1.4.6-.2,1.3-.5,2-.8l.5,1.5c-1.7.3-2.5.6-6.5,2,0,1.1,0,2.5,0,3h-1.4v-2.5c-1.5.7-4.2,2-4.2,3.3s2.9,1.9,5.1,1.9,4-.1,5.3-.4v1.5c-2.3.3-4.7.3-5,.3-1,0-2.8,0-4.5-.7-1.7-.6-2.2-1.7-2.2-2.6,0-2.2,2.8-3.5,5.6-4.7,0-1,0-2.1-1.6-2.1s-3,1-6.1,4.5l-1.1-1.1c1.4-1.2,3-3,3.6-3.7.5-.6,1-1.3,2-2.8-1.7.1-3.1.2-4.1.1v-1.4c.7,0,1.6.1,2.7.1s1.1,0,2.1,0c.5-.9.7-1.4.9-1.9.2-.4.4-.9.6-1.3l1.5.6Z"/>
            <path d="M268.9,993.4l1.1,1.1c-.3.5-.7,1.5-2.4,5.4.1.2,2.2,3.4,2.2,5.6s-.9,2.6-3.5,2.8c-.1-.5-.2-1.1-.6-1.6h1.2c1,0,1.4-.5,1.4-1.3,0-1.7-2-5.1-2.2-5.3.6-1.3,1.7-4.2,2-5.2h-3.2v16.9h-1.3v-18.2h5.3ZM276.3,993.1v3.6h5.1v1.3h-6.6c0,1,0,2.4-.1,3.7h5.6c0,.5-.3,5.7-.4,6.8-.3,2.4-.6,2.6-3.2,2.9,0-.4-.3-1.1-.7-1.6h1.6c.4,0,.6,0,.7-.5.3-1,.4-5.6.4-6.3h-4.2c-.8,5.5-3.7,7.4-5.7,8.6-.2-.4-.5-1-1-1.4,2.3-.9,3.7-2.8,4.2-3.9,1.3-2.6,1.3-5.9,1.3-8.2h-3.3v-1.3h4.8v-3.6h1.4Z"/>
            <path d="M296.8,995.8c-1.5,1.2-5.2,3.8-8.3,5.3-1,.5-1,.5-1,.8s.2.5.8.8c.8.5,3.1,2.1,5.4,4.1,1.3,1.1,2.5,2.3,3.8,3.7l-1.3,1.1c-3.2-3.5-3.4-3.8-6.1-6-1-.9-2.2-1.7-3.5-2.6-.4-.3-.8-.6-.8-1,0-.7.4-.9.7-1.1.2-.1,2.2-1.2,4.8-2.9,1.9-1.3,3-2.2,4.6-3.4l1,1.2ZM299.4,997.1c-.6-.8-1.4-1.7-2-2.3l.8-.7c.8.7,1.5,1.5,2.1,2.2l-.9.8ZM300.3,992.5c.7.6,1.5,1.4,2.1,2.2l-.9.8c-.6-.8-1.3-1.6-2-2.3l.8-.7Z"/>
            <path d="M311,997.3v1.3h-2v2.2c.7.8,1.3,1.3,1.9,1.8-.2.4-.4.9-.6,1.4-.4-.4-.8-.9-1.2-1.3v9.1h-1.4v-8.8c-.5,1.2-1.1,2.3-1.9,3.5-.2-.6-.4-1.1-.7-1.4,1.1-1.8,1.8-3.4,2.6-6.6h-2.1v-1.3h2.1v-4.3h1.4v4.3h2ZM319.3,1000.3c.4-.5.8-1.2,1.1-1.8-.8-.7-1.7-1.3-2.5-1.9,0,2.2.3,4.4.5,6.6h2.4l-.6-1,1.2-.5c.3.5.6,1,.8,1.4h1.6v1.3h-5.1c.3,1.1.6,2.1,1.2,3,.7-.5,1.3-1.3,1.8-2l1.1,1c-.6.8-1.4,1.6-2.2,2.3.8,1,1.3,1.2,1.5,1.2s.2,0,.3-.2c.1-.2.2-.6.4-1.3.4.3.9.5,1.4.6-.3,1-.8,2.6-1.7,2.6s-2.2-1-3-2c-1.3.9-2.6,1.6-4.2,2.1-.2-.4-.4-.8-.8-1.3,1.6-.4,2.8-.9,4.2-2-.9-1.6-1.2-2.8-1.4-3.9h-2.8c-.1.6-.3,1.1-.4,1.6.9.5,1.9,1,2.6,1.5l-.8,1.3c-.6-.5-1.5-1-2.2-1.4-.6,1.3-1.3,2.7-2.5,4.1-.3-.4-.7-.8-1.1-1.2,1.5-1.5,2.5-3.4,3-5.9h-2.2v-1.3h6.1c-.5-3.5-.5-5.9-.5-10.4h1.4v3.6l.7-.9.8.5c.4-.8.9-1.9,1.2-2.9l1.3.6c-.3.5-1.3,2.6-1.5,3l.8.7c.3-.5.8-1.3,1.1-2l1.2.8c-.7,1.1-1.1,1.7-1.5,2.2-.4.6-.8,1.2-1.3,1.9h1.8c0-.1-.5-1.1-.5-1.1l1-.4c.5.9.9,1.8,1.2,2.7l-1.2.4-.3-.8c-.6,0-3.4.5-3.9.6l-.2-1.4h.5ZM315.7,1002.2l-.3-.7c-1,.1-3.3.5-3.9.6l-.3-1.3h.8c.4-.6.8-1.2,1.1-1.9-.7-.7-1.6-1.4-2.6-2.2l.9-1,.8.6c.7-1.1,1.2-2.2,1.7-3.3l1.2.7c-.6,1-1.2,2.3-1.8,3.2l.8.7c.4-.7.8-1.4,1.1-1.9l1.1.8c-1,1.6-1.9,3-2.6,4.1l1.5-.2-.5-.8,1-.5c.6.9,1,1.8,1.4,2.5l-1.2.5Z"/>
            <path d="M327.3,997.6h1.9c.6-1.5.7-1.8,1.8-4.8l1.5.5c-.4,1.1-.7,1.6-.9,2.1s-.5,1-.8,1.9c1.3-.2,2.9-.3,3.8-.5-.3-.4-.7-1-1.2-1.6l1.2-.9c.9,1.2,1.7,2.3,2.5,3.7l-1.3.9c-.2-.3-.4-.7-.6-.9-1.8.4-2.8.5-7.6,1.1l-.3-1.6ZM335.7,999.9v9.8c0,1.5-.8,1.6-2.8,1.8,0-.4-.3-1.2-.5-1.6h1.6c.2,0,.3-.1.3-.3v-2.7h-4.2v4.8h-1.4v-11.8h7.1ZM330,1001.2v1.6h4.2v-1.6h-4.2ZM330,1004.1v1.6h4.2v-1.6h-4.2ZM339.4,993v2.8c1.4-.3,2.6-.5,5.1-1.4l.7,1.4c-2.7.8-4,1.2-5.8,1.5v2.4c0,.4.1.5.7.5h3.5c.7,0,.9,0,1.2-2,.4.3,1,.5,1.5.6-.6,2.6-1,2.7-3.3,2.7h-2.9c-1.3,0-2.1,0-2.1-1.2v-7.2h1.4ZM339.4,1002.3v2.9c1.7-.4,3.3-.9,5.1-1.7l.8,1.4c-2.1.8-2.6.9-5.9,1.8v2.6c0,.5.1.5.8.5h2.2c1.3,0,1.5,0,1.7,0,.4-.2.6-1.3.7-1.9.4.3,1,.5,1.5.7-.7,2.6-1.2,2.7-2.9,2.7s-3.3,0-3.8,0c-1.3,0-1.6-.3-1.6-1.5v-7.3h1.4Z"/>
            <path d="M351.5,1011.4c-1.3,0-2.5-.9-2.5-2.5s1-2.5,2.5-2.5,2.5.9,2.5,2.5-1.5,2.5-2.5,2.5ZM351.5,1010.4c1.1,0,1.5-.8,1.5-1.5,0-1.1-.9-1.5-1.5-1.5-1.2,0-1.5.9-1.5,1.5,0,1,.7,1.5,1.5,1.5Z"/>
          </g>
          <g>
            <path class="cls-3" d="M144.1,899.2v7.7h-16.3c-.3,13.9-5.6,19.5-18.9,23.6-.6-2.7-1.7-5.3-4.5-7.9,14.3-1.7,14.6-10.5,14.7-15.7h-17v-7.7h42ZM139.3,895.7c-.9-1.3-1.9-2.5-2.9-3.6v3.8h-27.7v-7.7h27l1.4-1.2c2,1.7,3.8,3.6,5.5,5.8l-3.2,2.9ZM141,883.6c2,1.5,3.9,3.6,5.8,5.6l-3.4,3c-1.7-2-3.5-3.9-5.6-5.9l3.2-2.7Z"/>
            <path class="cls-3" d="M187,903.6v7.5h-37.9v-7.5h37.9Z"/>
            <path class="cls-3" d="M216.7,888.8c-.5,1.1-1.1,2.2-1.7,3.3h10.7l.7-.3,5.1,5.7c-.6.8-.9,1.6-1.2,2.3-6.9,18.5-17.9,26.1-32.6,29.7-.8-2.6-1.7-4.8-4.2-7.4,5.1-1.2,11.4-2.9,17.4-7.7-1.8-1.8-1.9-1.8-6.9-5.8l4.8-5c3.3,1.9,3.7,2.2,7.5,5,2.4-3,3.8-6,5-9h-10.8c-6.2,8.4-11.7,11.6-14.8,13.4-1-2.2-2.3-4.7-4.8-6.7,9.3-4.9,14-12.6,17.8-20l8,2.4Z"/>
            <path class="cls-3" d="M256.1,913.4c-1,2.4-4.8,11.3-10.9,11.3s-9-7.7-9-14c0-9.8,6.7-21,22.5-21s19.6,16.7,19.6,17.9c0,4-.8,11.2-8.9,16.3-2.2,1.4-5.1,2.8-11.1,4.1-.6-2.6-1.8-5.5-3.3-7.6,8.8-.8,11.9-4.4,13-6,1.4-2.1,2.2-4.5,2.2-7s-.3-4.2-1.3-6c-1.1-1.8-3.3-4.1-7.9-5-1.1,6.2-2.2,10.6-4.8,17ZM244.9,903.7c-1,2.1-1.5,4.4-1.5,6.7s.6,6.1,2.7,6.1,4.4-4.3,7.5-19.6c-3.8,1.2-6.8,3-8.7,6.8Z"/>
            <path class="cls-3" d="M309.2,885.9v3.8h16.1v11.3h-7.4v-5.2h-15.7l3.9,1.8c-.7,1.7-1.7,3.4-2.4,4.9h22.5v6.5h-7.7c-1.1,2.8-2,4.6-5,9.2,2.7,1.3,6.4,3.2,10.4,5.6l-4,6c-2.4-1.6-4-2.7-11.5-6.6-3.8,2.3-9.3,5.5-21.2,6-.7-2.1-1.7-4.5-2.8-6.7,5.6,0,11-.3,16.5-2.6-1.6-.8-3.8-1.7-5.5-2.3l-.7,1.1-6.3-3.3c1.4-2.1,2.7-4.4,3.7-6.3h-8.6v-6.5h12c1.1-2.2,2.3-4.6,3.2-6.8h-7.4v5.1h-6.8v-11.2h16.3v-3.8h8.4ZM300.3,909.1c-.4.9-1,1.9-1.6,3.1,2.6,1,5.6,2,8.2,3.1,1.5-1.8,2.6-3.8,3.5-6.2h-10.1Z"/>
            <path class="cls-3" d="M338.4,904.8c-1.5,1-3.6,2.3-5.4,3.3-1-2.3-2.2-4.4-3.8-6.1,4.8-2.4,6.4-3.6,9.6-6.2,2.8-2.4,6.2-5.3,10.6-10.8l7.4,2.4-.9,1c3.8,4.3,9,7.8,11.2,9.1,2.9,1.7,5.6,3,9,4.4-1.6,1.7-3.2,3.8-4.3,6-2-.9-4-1.9-6-3.2v2h-9.5v4.6h10.3v5.8h-10.3v5h16.6v6.4h-40.6v-6.4h16.5v-5h-10.8v-5.8h10.8v-4.6h-10.4v-1.9ZM359.7,900.8c-4.8-3.6-6.3-5.3-8.1-7.6-2.5,2.7-3.2,3.3-7.9,7.6h16Z"/>
            <path class="cls-3" d="M390.7,885.9v7.8l3-1.5c.9,1.4,1.5,2.5,2.1,3.8.8-2.4,1.3-4.6,1.8-7.2l6.7,1.4c-.4,2-.6,2.8-1.2,5.1h2.2v-9.3h7.2v9.3h9.3v6.8h-9.3v6h7.8v6.3h-7.8v6.8h10.3v6.9h-29.8v-6.9h12.3v-6.8h-6.9v-6.3h6.9v-6h-4.4c-1.6,3.9-2.3,5.2-3.3,6.9-1.7-1.3-3.9-2.5-6-3.4.8-1.3,1.7-3,2.2-4.5l-1.5.9c-.4-1.2-.9-2.6-1.5-4.2v31.6h-6.5v-26c-.5,1.9-1,3.7-1.5,5.1l-5.5-1.6c1.4-4.1,2.1-6.4,3-12.6l4,.8v-9.2h6.5Z"/>
          </g>
        </g>
        <g>
          <g>
            <path class="cls-11" d="M790.6,960.8l137.2-79.2c17.5-10.1,46.1-10.2,63.6-.1l136.3,78.7c17.4,10.1,17.3,26.6-.2,36.7l-137.2,79.2c-17.5,10.1-46.1,10.2-63.6.1l-136.3-78.7c-17.4-10.1-17.3-26.6.2-36.7Z"/>
            <g>
              <path class="cls-14" d="M1171,855.8l-1.8,29.5c0,3.8-1.5,7.7-4,11.2-2.6,3.6-6.4,6.9-11.4,9.9,0,0,0,0,0,0l-160.1,92.4v-142.4s177.3-.6,177.3-.6Z"/>
              <path class="cls-12" d="M976.1,856.4h17.6c0,0,0,142.4,0,142.4-5.7,3.3-12.3,5.6-19.4,7.1v-149.5s1.8,0,1.8,0Z"/>
              <path class="cls-4" d="M747,857.2l172.4-.6v142.3s-40-23.1-40-23.1l-119.1-68.7h0c-10.4-6-15.4-13.9-15.2-21.8l1.8-28.1Z"/>
              <path class="cls-2" d="M937.6,856.5h36.6c0-.1,0,149.3,0,149.3-12.5,2.6-26.3,2.4-38.5-.6v-148.7s1.8,0,1.8,0Z"/>
              <path class="cls-10" d="M935.8,856.5v148.7c-6-1.5-11.5-3.6-16.3-6.4v-142.3s16.3,0,16.3,0Z"/>
            </g>
            <path class="cls-5" d="M762.4,836.1l160.1-92.4c20.5-11.8,53.9-11.9,74.2-.1l159.1,91.9c20.3,11.7,20.2,31-.2,42.8l-160.1,92.4c-20.5,11.8-53.9,11.9-74.2.1l-159.1-91.9c-20.3-11.7-20.2-31,.2-42.8Z"/>
            <path class="cls-7" d="M958.2,964.7c-11.3,0-22-2.5-29.5-6.8l-159.1-91.9c-5.7-3.3-7.8-6.6-7.8-8.4s2.5-5.5,8-8.7l160.1-92.4c7.6-4.4,18.5-6.9,29.9-6.9s22,2.5,29.5,6.8l159.1,91.9c5.7,3.3,7.8,6.6,7.8,8.4,0,2-2.5,5.5-8,8.7l-160.1,92.4c-7.6,4.4-18.5,6.9-29.9,6.9Z"/>
          </g>
          <g>
            <g class="cls-9">
              <path class="cls-2" d="M1085.7,844.5v11.6c-.1,18.8-12.5,37.6-37.1,51.9-49.7,28.9-130.4,28.9-180.4,0-25.2-14.5-37.7-33.6-37.7-52.6v-11.6c0,19,12.6,38.1,37.7,52.6,50,28.9,130.7,28.9,180.4,0,24.7-14.3,37-33.1,37.1-51.9Z"/>
              <path class="cls-4" d="M1048.1,791.9c50,28.9,50.2,75.6.6,104.5-49.7,28.9-130.4,28.9-180.4,0-50-28.9-50.2-75.6-.6-104.5,49.7-28.9,130.4-28.9,180.4,0Z"/>
            </g>
            <g class="cls-9">
              <path class="cls-12" d="M1061.9,707.2v127.8c0,15.3-10.1,30.5-30.2,42.2-40.4,23.5-106.1,23.5-146.7,0-20.5-11.8-30.7-27.3-30.6-42.8v-127.8c0,15.5,10.2,31,30.7,42.8,40.7,23.5,106.4,23.5,146.7,0,20.1-11.7,30.1-26.9,30.2-42.2Z"/>
              <path class="cls-14" d="M1031.3,664.4c40.7,23.5,40.9,61.5.5,85-40.4,23.5-106.1,23.5-146.7,0-40.7-23.5-40.9-61.5-.5-85,40.4-23.5,106.1-23.5,146.8,0Z"/>
            </g>
            <g>
              <g class="cls-9">
                <path class="cls-2" d="M1061.9,677.6v16.5c0,15.3-10.1,30.5-30.2,42.2-40.4,23.5-106.1,23.5-146.7,0-20.5-11.8-30.7-27.3-30.6-42.8v-16.5c0,15.5,10.2,31,30.7,42.8,40.7,23.5,106.4,23.5,146.7,0,20.1-11.7,30.1-26.9,30.2-42.2Z"/>
                <path class="cls-4" d="M1031.3,634.8c40.7,23.5,40.9,61.5.5,85-40.4,23.5-106.1,23.5-146.7,0-40.7-23.5-40.9-61.5-.5-85,40.4-23.5,106.1-23.5,146.8,0Z"/>
                <path class="cls-8" d="M1028.6,636.3c39.2,22.6,39.4,59.3.5,81.9-38.9,22.6-102.2,22.6-141.4,0-39.2-22.6-39.4-59.3-.5-81.9,38.9-22.6,102.2-22.6,141.4,0Z"/>
                <path class="cls-14" d="M1016.2,645.8c32.3,17.4,32.5,45.5.4,62.9s-84.3,17.4-116.5,0c-32.3-17.4-32.5-45.5-.4-62.9,32.1-17.4,84.3-17.4,116.5,0Z"/>
                <path class="cls-2" d="M899.7,651.7c32.1-17.4,84.3-17.4,116.5,0,14.3,7.7,22.3,19.6,24,29.7,2.1-12.7-5.9-25.8-24-35.6-32.3-17.4-84.5-17.4-116.5,0-17.8,9.7-25.7,22.6-23.6,35.3,1.6-10,9.5-21.7,23.6-29.4Z"/>
              </g>
              <g class="cls-9">
                <path class="cls-2" d="M998.8,673.9v6.5c0,6-4,12-11.8,16.5-15.8,9.2-41.6,9.2-57.5,0-8-4.6-12-10.7-12-16.8v-6.5c0,6.1,4,12.1,12,16.8,15.9,9.2,41.7,9.2,57.5,0,7.9-4.6,11.8-10.6,11.8-16.5Z"/>
                <path class="cls-4" d="M986.8,657.1c15.9,9.2,16,24.1.2,33.3-15.8,9.2-41.6,9.2-57.5,0-15.9-9.2-16-24.1-.2-33.3,15.8-9.2,41.6-9.2,57.5,0Z"/>
                <path class="cls-2" d="M979,662.4c11.6,6.3,11.7,16.4.1,22.6-11.5,6.3-30.3,6.3-42,0-11.6-6.3-11.7-16.4-.1-22.6,11.5-6.3,30.3-6.3,42,0Z"/>
                <path class="cls-2" d="M937.1,665.3c11.5-6.3,30.3-6.3,42,0,5.2,2.8,8,6.3,8.6,9.9.8-4.6-2.1-9.3-8.6-12.8-11.6-6.3-30.4-6.3-42,0-6.4,3.5-9.2,8.2-8.5,12.7.6-3.6,3.4-7.1,8.5-9.8Z"/>
              </g>
            </g>
          </g>
        </g>
        <g>
          <line class="cls-6" x1="1082.2" y1="640.6" x2="1357.9" y2="640.6"/>
          <circle class="cls-3" cx="1082.2" cy="640.6" r="2.5"/>
        </g>
        <g>
          <line class="cls-6" x1="1202.2" y1="907.5" x2="1357.9" y2="907.5"/>
          <circle class="cls-3" cx="1202.2" cy="907.5" r="2.5"/>
        </g>
        <g>
          <line class="cls-6" x1="833.6" y1="640.6" x2="529.3" y2="640.6"/>
          <circle class="cls-3" cx="833.6" cy="640.6" r="2.5"/>
        </g>
        <g>
          <line class="cls-6" x1="713.6" y1="907.5" x2="529.3" y2="907.5"/>
          <circle class="cls-3" cx="713.6" cy="907.5" r="2.5"/>
        </g>
      </g>
    </g>
  </g>
</svg>