<?xml version="1.0" encoding="UTF-8"?>
<svg id="Layer_1" xmlns="http://www.w3.org/2000/svg" version="1.1" viewBox="0 0 783 188">
  <!-- Generator: Adobe Illustrator 29.3.1, SVG Export Plug-In . SVG Version: 2.1.0 Build 151)  -->
  <path d="M502,40l-.12,10.38-1.38,1.39c-.41.03-.75-.77-1-.77h-25.5v15h24v77.5c-.88,1.43-1.99,1.38-3.45,1.55-7.66.9-16.3-.97-23.99-1.08s-15.44,1.28-23.02-.01l-32.54.05v-75.51s1.51-2.5,1.51-2.5h21.5l-.94-14.56-25.89-.61-1.17-10.83h92ZM461,52l-10.54-.05-.35,13.93,10.89.11v-14ZM461,77h-10v56h10v-56ZM474,77v56h10.01c.53-18.78.53-37.23,0-56.01h-10.01ZM438,78h-10v55h10v-55Z"/>
  <path d="M154,32c7.64,7.64,10.22,16.35,6.72,27.22-1.2,3.73-4.06,6.05-4.71,9.78,31.96,3.08,31.86,47.46,0,51.01,1.2,3.78,3.86,6.53,4.94,10.55,5.56,20.75-13.65,38.37-33.49,31.49-3.86-1.34-5.91-3.72-9.45-5.04-.06,22.71-29.58,33.5-45,16.49-4.49-4.96-4.95-10.71-7.5-16.48-9.85,8.8-25.22,9.25-34.5-.52,11.28.88,23.03,3.57,33.99-.99-9.53-5.4-12.82-15.52-8-25.49-11.07,3.8-20.35,1.2-26.5-9.01-3.78,10.9-3.21,22.94-.51,34-11.43-8-8.71-25.27-.99-34.99-13.2-1.9-25.22-11.73-23.99-26.01l8.97,12.52,14.53,11.47c-.2-10.53,2.6-19.96,13.49-23.49-9.55-5.34-15.71-14.2-12-25.5-10.27,5.8-18.71,13.63-24.5,23.99-1.78-9.94,5.76-18.85,14.5-22.5,2.05-.85,8.9-1.68,8.98-2.99-16.02-20.99,1.56-50.81,28.3-42.28,3.52,1.12,6.26,3.83,9.72,4.77-.17-12.78,11.86-25.26,25-23.98l-15.99,12.5-8.02,11.98c7.66-1.59,14.41-.25,20.02,5.27l4.97,8.23c2.51-10.3,13.91-16.5,24.01-13,2.39-2.4-19.35-24.23-23.99-24.01-.27-1.58,1.41-1.07,2.51-1.02,11.95.47,22.61,12.11,22.49,24.03,3.23-.45,5.29-2.86,8.45-4.04,11.15-4.17,19.53-1.97,27.55,6.05-11.15-2.76-22.68-2.51-34-.99,8.68,7.39,12.82,16.79,8.01,27.99,6.54-3.48,13.88-2.41,19.92,1.57l7.06,6.44c2.22-11.95,2.12-23.2-.99-35ZM65,31.01c-11.04-2.52-22.68-3.06-33.51.98-4.61,11.5-3.68,23.17-1.48,35.01,7.08-8.36,16.14-13.7,26.98-8-4.99-11.62-.45-20.03,8.01-27.99ZM90.99,44.02c-4.14-2.07-21.15-14.22-24.87-11.89-3.43,8.58-6.68,17.51-7.12,26.87,7.08-4.86,13.92-3.8,19.98,2-.56-7.27,4.14-13.74,11.36-15l.64-1.98ZM125.99,59c1.34-1.89-4.71-23.94-7.99-26.57-2.99-1.53-21.39,9.46-23.99,13.07,7.67,1.81,12.92,7.26,12,15.49,5.79-5.55,13.06-6.19,19.98-2ZM126.01,60.99l-20.33,1.91-12.31-15.83c-6.55,3.39-9.4,10.46-13.95,15.75-6.7-1.94-13.48-2.07-20.42-1.83l1.86,19.32c-1.94,2.71-16.02,11.2-15.58,14.19l15.62,13.17-1.9,20.33,20.87-2.92,12.64,16.89,13.15-17.05,20.36,3.08-1.9-20.33,15.88-13.18-15.82-14.2c1.62-6.41,2.29-12.66,1.84-19.31ZM57,61.01c-9.25-.16-17.69,3.52-25.92,7.09-1.73,2.38,9.94,22.59,13.43,24.9.98-7.78,6.38-13.22,14.49-13.01-5.02-5.95-5.1-12.09-2-18.98ZM140.01,93c4-1.79,14.52-20.63,13.86-23.4-1.94-3.6-24.88-9.56-25.86-8.6,3.25,7.5,4.14,12.75-2,18.98,7.57.38,14.19,4.89,14.01,13.01ZM155.01,119c9.81-6.16,19.14-13.63,23.99-24.5-5.15-10.56-13.63-19.16-23.99-24.5,2.41,7.58-.06,15.32-5.98,20.52-2.01,1.76-4.79,2.15-6.02,4.46,10.4,2.78,15.38,14.01,12.01,24.01ZM44.99,96c-1.74-1.57-6.91,7.24-7.8,8.69-1.71,2.77-6.85,11.94-6.27,14.67,3.58,2.72,23.17,9.64,26.08,7.63-3.86-6.6-3.36-13.56,2-18.98-7.25.61-13.48-4.75-14.01-12.01ZM141.98,96.01c-2.94-.55-1.83,3.26-3.53,5.95-2.37,3.76-8,6.64-12.46,6.05,5.7,5.47,4.76,12.29,2,18.98,9.22.43,17.72-3.54,25.98-7.04-1.87-8.89-7.7-16.17-12.01-23.95ZM154.99,122c-2.96.29-3.7,3.51-6.07,5.42-6.39,5.16-13.48,4.4-20.92,2.58,5.07,10.43.69,19.63-8,25.98,6.04,2.42,28.56,3.25,32.98-.51,4.84-4.12,2.99-26.99,2.02-33.47ZM91,142.01c-8.02-.61-12.48-7.29-12.01-15.01-6.06,5.8-12.9,6.86-19.98,2,.41,9.13,2.75,17.9,7.12,25.88,2.82,1.81,21.09-7.73,23.81-10.44.84-.83,1.41-.91,1.06-2.43ZM125.99,129c-7.08,4.86-13.92,3.8-19.98-2,.9,6.86-4.04,14.92-11.41,15.01l-.59,1.97c3.78,2.69,20.37,12.46,23.98,10.57,5.71-6.9,6.9-16.9,8-25.56ZM117,157.01c-10.35,1.4-20.19-2.08-24.5-12.02-4.45,10.62-13.92,12.62-24.51,12.52.12,4.34,19.2,22.84,23.66,23.28,5.86.58,22.96-17.88,25.35-23.78Z"/>
  <path d="M566,106l-1.55-6.03c4.76-3.23,9.51-6.48,14.25-9.74.88-.6,1.86.17,1.3-2.22h-44s0-11.01,0-11.01h74.01s-.21,8.8-.21,8.8c-5.83,5.36-22.28,11.6-26.76,16.73-1.1,1.27-1.28,1.73-1.03,3.47h55l-1,12h-51c2.84,9.36-.61,22.62-10.29,26.21-.93.35-5.77,1.79-6.21,1.79h-23.5v-12c12.34,2.56,30.11,1.25,25-16h-61v-12h57Z"/>
  <path d="M649,110v-12.01c4.9-.9,9.91,1.12,14.5,1.09,15.27-.08,30.8-.86,46.17-.71,19.74.2,39.57,1.15,59.34.62v11.01h-76.51l-9.5,20.99,55.99-7-5.99-10.99,13.13-.49c1.43.44,2.41,1.4,3.33,2.53,3.3,4.02,8.73,12.92,11.34,17.65,2.38,4.31,4.18,8.84,6.19,13.31h-14.5c-3.1-2.3-5.24-11.74-8.92-11.92l-89.44,11.79-3.13-11.86,14.83-1.17,10.16-22.83h-27Z"/>
  <path d="M234,130.5c.26-.98,4.75-6.02,5.74-8.26,7.53-17.01,5.18-40.08,5.69-58.31,1.72-2.48,23.25-.2,27.57.07l.57-11.02,15.43,1.01v9.01s24.99,0,24.99,0v42h-55.5l-1.32,1.68c-1.2,14.95-8.29,28.71-20.18,37.82-1.01.77-1.26,1.93-3.01,1.49.73-4.29-.99-11.71,0-15.5ZM300,74h-41v4h41v-4ZM259,94h41v-5.01c-13.76-.21-27.26-1.39-41,0v5.01Z"/>
  <path d="M622,36l-15,24h24v30h-14v-18h-88v19h-14v-31h74.5l15.78-22.71c.39-.36,1.94-1.29,2.22-1.29h14.5Z"/>
  <path d="M725.62,41.39c3.48,2.76,6.48,6.33,10.47,9.02,10.75,7.25,23.08,10.98,35.97,12.03l1.93,11.56c-19.85-1.42-39.92-7.52-55.89-19.6-3-2.27-7.25-4.54-8.13-8.39-17.91,15.81-41.75,27.58-65.99,28.01.4-2.61-1.02-9.03.98-10.53,1.29-.96,16.31-4.06,19.79-5.21,6.35-2.11,11.5-4.24,17.15-7.85,4.07-2.61,15.19-13.45,17.8-14.2s14.07-1.66,16.74-1.16,6.91,4.54,9.17,6.33Z"/>
  <path d="M373,91.5c1.04-4.04,11.33-15.98,13.77-22.23,4.07-10.39,4.68-22.05,7.16-32.84l13.07-.44c.75.76-1.7,18.54-2.28,21.23-.52,2.4-3.72,8.78-3.72,9.28v79.5h-13v-51c-5.26,3.49-8.61,10.24-15,12,.72-4.32-.98-11.66,0-15.5Z"/>
  <path d="M346.5,135c1.22-.26,3.56-2.09,3.56-3.53l-1.06-92.98,1.64-2.36,12.37-.14c.07,16.83-.09,33.7-.05,50.55.02,6.64.06,13.27,0,19.92-.07,7.11,1.35,29.14-1.09,33.91-1.42,2.78-7.43,6.63-10.37,6.63h-21.5v-12c4.84-.69,12.03.94,16.5,0Z"/>
  <path d="M314,110v37l-55-1c1.81-11.98.76-23.99,0-36h55ZM301,135c-1.73-4.59,1.9-10.19-1.5-14h-26.5v14h28Z"/>
  <polygon points="768.9 78.09 769.01 89.01 648.99 88.01 648.99 76.99 768.9 78.09"/>
  <path d="M278.65,47.64c-10.4,8.16-27.52,13.59-40.66,13.37v-11.01c6.92-.17,15.35-2.58,21.32-6.18,2.73-1.65,5.98-5.46,8.4-6.6,3.55-1.66,20.59-1.97,24.33-.78,2.97.94,8.28,7.16,11.89,9.11,3.96,2.14,14.48,3.72,16.08,4.92s2.23,11.42-1.42,11.47c-11.29.16-30.28-8.57-38.1-16.93-.63.02-1.19,2.11-1.84,2.62Z"/>
  <rect x="323" y="43" width="14" height="80"/>
  <path d="M585,56h-16l-11-20h14.5c3.38,0,11.25,16.37,12.5,20Z"/>
  <path d="M552,56h-16l-9-18.99c3.39.29,7.24-.4,10.55-.06.92.09,1.84-.03,2.75.25,2.54.78,10.81,15.24,11.69,18.81Z"/>
</svg>